<svg x="2.3399963" y="6.5699997" viewBox="0 0 149.66 145.43" xmlns="http://www.w3.org/2000/svg">
	<path d="M 149.07,29.78 L 149.51251,30.63125 149.08,29.78 Z M 149.51251,30.63125 L 149.66,120.42 149.66,31.58 Z M 149.66,120.42 L 149.08,122.22 149.505,121.365005 Z M 145.44,127.46 L 145.36447,132.31398 145.44,130.82 Z M 145.36447,132.31398 L 144.7824,135.165 145.14282,133.76476 Z M 144.7824,135.165 L 143.67487,137.78448 144.29062,136.50735 Z M 143.67487,137.78448 L 142.10092,140.11378 142.9425,138.98907 Z M 142.10092,140.11378 L 140.11963,142.09413 141.1575,141.15125 Z M 140.11963,142.09413 L 137.79007,143.66687 138.99469,142.93512 Z M 137.79007,143.66687 L 135.17126,144.77325 136.51312,144.28201 Z M 135.17126,144.77325 L 132.32233,145.35458 133.77188,145.13321 Z M 132.32233,145.35458 L 21.17,145.43 130.83,145.43 Z M 21.17,145.43 L 18.225254,145.13281 19.67603,145.35446 Z M 18.225254,145.13281 L 15.4826565,144.28061 16.825016,144.77238 Z M 15.4826565,144.28061 L 13.000917,142.9325 14.20551,143.66486 Z M 13.000917,142.9325 L 10.83875,141.14749 11.876218,142.09091 Z M 10.83875,141.14749 L 9.054863,138.98468 9.895852,140.10962 Z M 9.054863,138.98468 L 7.7079687,136.50313 8.323122,137.78006 Z M 7.7079687,136.50313 L 6.856777,133.76187 7.2167406,135.16127 Z M 6.856777,133.76187 L 6.56,130.82 6.635417,132.31233 Z M 6.56,127.46 L 2.4875,121.368744 2.92,122.22 Z M 2.4875,121.368744 L 2.34,31.58 2.34,120.42 Z M 2.34,31.58 L 2.92,29.78 2.495,30.635 Z M 6.56,24.54 L 11.01,21.17 6.56,21.18 Z M 140.94742,131.86696 L 141.01,130.83 141,130.83 Z M 141.01,130.83 L 140.99,21.17 140.99,130.83 Z M 11.062469,20.134695 L 6.56,21.18 11.01,21.17 Z M 6.56,21.18 L 6.8571873,18.235254 6.635527,19.686028 Z M 6.8571873,18.235254 L 7.709375,15.492657 7.217597,16.835018 Z M 7.709375,15.492657 L 9.057501,13.010918 8.325138,14.21551 Z M 9.057501,13.010918 L 10.8425,10.84875 9.899082,11.886218 Z M 10.8425,10.84875 L 13.005312,9.064863 11.88037,9.905852 Z M 13.005312,9.064863 L 15.486875,7.717969 14.209941,8.333122 Z M 15.486875,7.717969 L 18.228125,6.8667774 16.828732,7.226741 Z M 18.228125,6.8667774 L 21.17,6.57 19.677673,6.645417 Z M 21.17,6.57 L 132.31398,6.6455274 130.82,6.57 Z M 132.31398,6.6455274 L 135.165,7.227597 133.76476,6.8671875 Z M 135.165,7.227597 L 137.78448,8.335138 136.50735,7.719375 Z M 137.78448,8.335138 L 140.11378,9.909082 138.98907,9.067501 Z M 140.11378,9.909082 L 142.09413,11.89037 141.15125,10.8525 Z M 142.09413,11.89037 L 143.66687,14.219941 142.93512,13.015312 Z M 143.66687,14.219941 L 144.77325,16.83873 144.28201,15.496875 Z M 144.77325,16.83873 L 145.35458,19.687675 145.13321,18.238125 Z M 145.35458,19.687675 L 145.43,24.54 145.43,21.18 Z M 145.43,24.54 L 149.51251,30.63125 149.07,29.78 Z M 149.51251,30.63125 L 149.08,122.22 149.66,120.42 Z M 145.44,127.46 L 144.7824,135.165 145.36447,132.31398 Z M 144.7824,135.165 L 142.10092,140.11378 143.67487,137.78448 Z M 142.10092,140.11378 L 137.79007,143.66687 140.11963,142.09413 Z M 137.79007,143.66687 L 132.32233,145.35458 135.17126,144.77325 Z M 132.32233,145.35458 L 18.225254,145.13281 21.17,145.43 Z M 18.225254,145.13281 L 13.000917,142.9325 15.4826565,144.28061 Z M 13.000917,142.9325 L 9.054863,138.98468 10.83875,141.14749 Z M 9.054863,138.98468 L 6.856777,133.76187 7.7079687,136.50313 Z M 6.856777,133.76187 L 6.56,127.46 6.56,130.82 Z M 6.56,127.46 L 2.34,31.58 2.4875,121.368744 Z M 2.34,31.58 L 6.56,24.54 2.92,29.78 Z M 6.56,24.54 L 11.01,130.83 11.01,21.17 Z M 11.216465,19.128496 L 6.56,21.18 11.062469,20.134695 Z M 6.56,21.18 L 7.709375,15.492657 6.8571873,18.235254 Z M 7.709375,15.492657 L 10.8425,10.84875 9.057501,13.010918 Z M 10.8425,10.84875 L 15.486875,7.717969 13.005312,9.064863 Z M 15.486875,7.717969 L 21.17,6.57 18.228125,6.8667774 Z M 21.17,6.57 L 135.165,7.227597 132.31398,6.6455274 Z M 135.165,7.227597 L 140.11378,9.909082 137.78448,8.335138 Z M 140.11378,9.909082 L 143.66687,14.219941 142.09413,11.89037 Z M 143.66687,14.219941 L 145.35458,19.687675 144.77325,16.83873 Z M 145.43,24.54 L 149.08,122.22 149.51251,30.63125 Z M 145.44,127.46 L 142.10092,140.11378 144.7824,135.165 Z M 142.10092,140.11378 L 132.32233,145.35458 137.79007,143.66687 Z M 132.32233,145.35458 L 13.000917,142.9325 18.225254,145.13281 Z M 13.000917,142.9325 L 6.856777,133.76187 9.054863,138.98468 Z M 6.856777,133.76187 L 2.34,31.58 6.56,127.46 Z M 2.34,31.58 L 11.01,130.83 6.56,24.54 Z M 11.466877,18.156605 L 6.56,21.18 11.216465,19.128496 Z M 6.56,21.18 L 10.8425,10.84875 7.709375,15.492657 Z M 10.8425,10.84875 L 21.17,6.57 15.486875,7.717969 Z M 21.17,6.57 L 140.11378,9.909082 135.165,7.227597 Z M 140.11378,9.909082 L 145.35458,19.687675 143.66687,14.219941 Z M 145.43,24.54 L 145.44,127.46 149.08,122.22 Z M 6.856777,133.76187 L 11.01,130.83 2.34,31.58 Z M 11.808594,17.224218 L 6.56,21.18 11.466877,18.156605 Z M 6.56,21.18 L 21.17,6.57 10.8425,10.84875 Z M 140.11378,9.909082 L 145.43,24.54 145.35458,19.687675 Z M 145.43,24.54 L 142.10092,140.11378 145.44,127.46 Z M 6.856777,133.76187 L 11.062689,131.8686 11.01,130.83 Z M 12.236502,16.33654 L 6.56,21.18 11.808594,17.224218 Z M 6.856777,133.76187 L 11.217285,132.87726 11.062689,131.8686 Z M 12.745489,15.49877 L 6.56,21.18 12.236502,16.33654 Z M 13.000917,142.9325 L 11.217285,132.87726 6.856777,133.76187 Z M 13.330442,14.716106 L 6.56,21.18 12.745489,15.49877 Z M 13.000917,142.9325 L 11.468592,133.85083 11.217285,132.87726 Z M 13.98625,13.99375 L 6.56,21.18 13.330442,14.716106 Z M 13.000917,142.9325 L 11.811407,134.78423 11.468592,133.85083 Z M 13.98625,13.99375 L 21.17,6.57 6.56,21.18 Z M 13.000917,142.9325 L 12.240531,135.67235 11.811407,134.78423 Z M 14.7078,13.336902 L 21.17,6.57 13.98625,13.99375 Z M 13.000917,142.9325 L 12.750762,136.51004 12.240531,135.67235 Z M 15.489981,12.750762 L 21.17,6.57 14.7078,13.336902 Z M 13.000917,142.9325 L 13.336902,137.29222 12.750762,136.51004 Z M 16.327679,12.240531 L 21.17,6.57 15.489981,12.750762 Z M 13.000917,142.9325 L 13.99375,138.01376 13.336902,137.29222 Z M 17.215782,11.811407 L 21.17,6.57 16.327679,12.240531 Z M 13.000917,142.9325 L 14.716106,138.66957 13.99375,138.01376 Z M 18.149178,11.468592 L 21.17,6.57 17.215782,11.811407 Z M 13.000917,142.9325 L 15.49877,139.25452 14.716106,138.66957 Z M 19.122753,11.217285 L 21.17,6.57 18.149178,11.468592 Z M 13.000917,142.9325 L 16.33654,139.76349 15.49877,139.25452 Z M 20.131397,11.062689 L 21.17,6.57 19.122753,11.217285 Z M 13.000917,142.9325 L 17.224218,140.1914 16.33654,139.76349 Z M 21.17,11.01 L 21.17,6.57 20.131397,11.062689 Z M 13.000917,142.9325 L 18.156605,140.53311 17.224218,140.1914 Z M 130.83,11.01 L 21.17,6.57 21.17,11.01 Z M 13.000917,142.9325 L 19.128496,140.78354 18.156605,140.53311 Z M 130.83,11.01 L 140.11378,9.909082 21.17,6.57 Z M 13.000917,142.9325 L 20.134695,140.93753 19.128496,140.78354 Z M 131.86696,11.062469 L 140.11378,9.909082 130.83,11.01 Z M 13.000917,142.9325 L 21.17,140.99 20.134695,140.93753 Z M 132.87437,11.216465 L 140.11378,9.909082 131.86696,11.062469 Z M 132.32233,145.35458 L 21.17,140.99 13.000917,142.9325 Z M 133.8471,11.466877 L 140.11378,9.909082 132.87437,11.216465 Z M 132.32233,145.35458 L 130.84,140.99 21.17,140.99 Z M 134.78,11.808594 L 140.11378,9.909082 133.8471,11.466877 Z M 132.32233,145.35458 L 131.87695,140.93744 130.84,140.99 Z M 135.66788,12.236502 L 140.11378,9.909082 134.78,11.808594 Z M 142.10092,140.11378 L 131.87695,140.93744 132.32233,145.35458 Z M 136.50562,12.745489 L 140.11378,9.909082 135.66788,12.236502 Z M 142.10092,140.11378 L 132.88437,140.78314 131.87695,140.93744 Z M 137.28806,13.330442 L 140.11378,9.909082 136.50562,12.745489 Z M 142.10092,140.11378 L 133.8571,140.53229 132.88437,140.78314 Z M 138.01001,13.98625 L 140.11378,9.909082 137.28806,13.330442 Z M 142.10092,140.11378 L 134.79001,140.19002 133.8571,140.53229 Z M 138.66634,14.7078 L 140.11378,9.909082 138.01001,13.98625 Z M 142.10092,140.11378 L 135.67789,139.7615 134.79001,140.19002 Z M 139.25189,15.489981 L 140.11378,9.909082 138.66634,14.7078 Z M 142.10092,140.11378 L 136.51562,139.25189 135.67789,139.7615 Z M 139.7615,16.327679 L 140.11378,9.909082 139.25189,15.489981 Z M 142.10092,140.11378 L 137.29803,138.66634 136.51562,139.25189 Z M 140.19002,17.215782 L 140.11378,9.909082 139.7615,16.327679 Z M 142.10092,140.11378 L 138.01999,138.01001 137.29803,138.66634 Z M 140.53229,18.149178 L 140.11378,9.909082 140.19002,17.215782 Z M 142.10092,140.11378 L 138.67632,137.28806 138.01999,138.01001 Z M 140.78314,19.122753 L 140.11378,9.909082 140.53229,18.149178 Z M 142.10092,140.11378 L 139.26187,136.50562 138.67632,137.28806 Z M 140.93744,20.131397 L 140.11378,9.909082 140.78314,19.122753 Z M 142.10092,140.11378 L 139.77148,135.66788 139.26187,136.50562 Z M 140.93744,20.131397 L 145.43,24.54 140.11378,9.909082 Z M 142.10092,140.11378 L 140.2,134.78 139.77148,135.66788 Z M 140.99,21.17 L 145.43,24.54 140.93744,20.131397 Z M 142.10092,140.11378 L 140.54227,133.8471 140.2,134.78 Z M 141.01,130.83 L 145.43,24.54 140.99,21.17 Z M 142.10092,140.11378 L 140.79312,132.87437 140.54227,133.8471 Z M 141.01,130.83 L 142.10092,140.11378 145.43,24.54 Z M 142.10092,140.11378 L 140.94742,131.86696 140.79312,132.87437 Z M 140.94742,131.86696 L 142.10092,140.11378 141.01,130.83 Z " style="fill:#FF671C;fill-opacity:1;" />
</svg>
