<svg x="4.6600037" y="3.6399994" viewBox="0 0 146.61 144.01" xmlns="http://www.w3.org/2000/svg">
	<path d="M 143.13,84.29 L 143.4075,101.28999 146.61,89.67 Z M 143.4075,101.28999 L 138.28,112.16 138.3,112.16 Z M 138.28,112.16 L 122.95,130.6 131.41,122.01375 Z M 116.53,130.29 L 97.55625,140.37874 107.48984,136.0661 Z M 97.55625,140.37874 L 75.62,144.01 86.882034,143.07703 Z M 75.62,144.01 L 53.68875,140.37999 64.35953,143.07718 Z M 53.68875,140.37999 L 34.72,130.3 43.758595,136.07031 Z M 34.72,130.3 L 19.8125,122.04 28.28,130.62 Z M 19.8125,122.04 L 12.97,112.17 12.95,112.17 Z M 12.97,112.17 L 4.66,89.68 7.8625,101.3 Z M 8.13,84.3 L 11.65,76 7.61,76 Z M 11.98093,69.46739 L 7.61,76 11.65,76 Z M 7.61,76 L 10.663593,55.823593 8.392715,65.66975 Z M 10.663593,55.823593 L 19.20625,38.04625 14.306738,46.57721 Z M 19.20625,38.04625 L 32.31078,23.59328 25.24623,30.346386 Z M 32.31078,23.59328 L 49.05,13.39 40.284004,17.902597 Z M 49.05,13.39 L 63.64625,4.65625 51.98,7.69 Z M 63.64625,4.65625 L 75.62,3.66 75.62,3.64 Z M 75.62,3.66 L 99.26,7.71 87.5975,4.67625 Z M 102.18,13.38 L 118.93234,23.584845 110.95303,17.893028 Z M 118.93234,23.584845 L 132.04625,38.041252 126.00204,30.33955 Z M 132.04625,38.041252 L 140.59453,55.82203 136.94905,46.574043 Z M 140.59453,55.82203 L 143.65,76 142.8668,65.66932 Z M 143.13,84.29 L 138.28,112.16 143.4075,101.28999 Z M 138.28,112.16 L 116.53,130.29 122.95,130.6 Z M 116.53,130.29 L 75.62,144.01 97.55625,140.37874 Z M 75.62,144.01 L 34.72,130.3 53.68875,140.37999 Z M 34.72,130.3 L 12.97,112.17 19.8125,122.04 Z M 12.97,112.17 L 8.13,84.3 4.66,89.68 Z M 8.13,84.3 L 11.98093,82.53249 11.65,76 Z M 12.952129,63.12121 L 7.61,76 11.98093,69.46739 Z M 7.61,76 L 19.20625,38.04625 10.663593,55.823593 Z M 19.20625,38.04625 L 49.05,13.39 32.31078,23.59328 Z M 49.05,13.39 L 75.62,3.66 63.64625,4.65625 Z M 75.62,3.66 L 102.18,13.38 99.26,7.71 Z M 102.18,13.38 L 132.04625,38.041252 118.93234,23.584845 Z M 132.04625,38.041252 L 143.65,76 140.59453,55.82203 Z M 143.65,76 L 138.28,112.16 143.13,84.29 Z M 12.97,112.17 L 11.98093,82.53249 8.13,84.3 Z M 14.531208,56.993874 L 7.61,76 12.952129,63.12121 Z M 12.97,112.17 L 12.952129,88.87836 11.98093,82.53249 Z M 14.531208,56.993874 L 19.20625,38.04625 7.61,76 Z M 12.97,112.17 L 14.531208,95.0052 12.952129,88.87836 Z M 16.685781,51.117813 L 19.20625,38.04625 14.531208,56.993874 Z M 12.97,112.17 L 16.685781,100.880615 14.531208,95.0052 Z M 19.38346,45.525467 L 19.20625,38.04625 16.685781,51.117813 Z M 12.97,112.17 L 19.38346,106.47221 16.685781,100.880615 Z M 22.591854,40.24926 L 19.20625,38.04625 19.38346,45.525467 Z M 12.97,112.17 L 22.591854,111.747574 19.38346,106.47221 Z M 26.27858,35.32163 L 19.20625,38.04625 22.591854,40.24926 Z M 34.72,130.3 L 22.591854,111.747574 12.97,112.17 Z M 30.41125,30.775002 L 19.20625,38.04625 26.27858,35.32163 Z M 34.72,130.3 L 26.27858,116.6743 22.591854,111.747574 Z M 34.957474,26.641813 L 19.20625,38.04625 30.41125,30.775002 Z M 34.72,130.3 L 30.41125,121.21999 26.27858,116.6743 Z M 39.884865,22.954494 L 19.20625,38.04625 34.957474,26.641813 Z M 34.72,130.3 L 34.957474,125.35225 30.41125,121.21999 Z M 39.884865,22.954494 L 49.05,13.39 19.20625,38.04625 Z M 34.72,130.3 L 39.884865,129.03867 34.957474,125.35225 Z M 45.161034,19.745474 L 49.05,13.39 39.884865,22.954494 Z M 34.72,130.3 L 45.161034,132.24683 39.884865,129.03867 Z M 50.753593,17.047188 L 49.05,13.39 45.161034,19.745474 Z M 34.72,130.3 L 50.753593,134.94437 45.161034,132.24683 Z M 56.630154,14.892065 L 49.05,13.39 50.753593,17.047188 Z M 34.72,130.3 L 56.630154,137.09885 50.753593,134.94437 Z M 62.758335,13.312539 L 49.05,13.39 56.630154,14.892065 Z M 75.62,144.01 L 56.630154,137.09885 34.72,130.3 Z M 69.10574,12.34104 L 49.05,13.39 62.758335,13.312539 Z M 75.62,144.01 L 62.758335,138.67789 56.630154,137.09885 Z M 69.10574,12.34104 L 75.62,3.66 49.05,13.39 Z M 75.62,144.01 L 69.10574,139.64906 62.758335,138.67789 Z M 75.64,12.01 L 75.62,3.66 69.10574,12.34104 Z M 75.62,144.01 L 75.64,139.98 69.10574,139.64906 Z M 82.174255,12.340931 L 75.62,3.66 75.64,12.01 Z M 75.62,144.01 L 82.174255,139.64917 75.64,139.98 Z M 88.52167,13.31213 L 75.62,3.66 82.174255,12.340931 Z M 75.62,144.01 L 88.52167,138.67828 82.174255,139.64917 Z M 94.64984,14.89121 L 75.62,3.66 88.52167,13.31213 Z M 75.62,144.01 L 94.64984,137.0997 88.52167,138.67828 Z M 100.526405,17.045782 L 75.62,3.66 94.64984,14.89121 Z M 116.53,130.29 L 94.64984,137.0997 75.62,144.01 Z M 106.118965,19.74346 L 75.62,3.66 100.526405,17.045782 Z M 116.53,130.29 L 100.526405,134.94577 94.64984,137.0997 Z M 106.118965,19.74346 L 102.18,13.38 75.62,3.66 Z M 116.53,130.29 L 106.118965,132.24884 100.526405,134.94577 Z M 111.395134,22.951855 L 102.18,13.38 106.118965,19.74346 Z M 116.53,130.29 L 111.395134,129.0413 106.118965,132.24884 Z M 116.322525,26.63858 L 102.18,13.38 111.395134,22.951855 Z M 138.28,112.16 L 111.395134,129.0413 116.53,130.29 Z M 120.86875,30.77125 L 102.18,13.38 116.322525,26.63858 Z M 138.28,112.16 L 116.322525,125.355484 111.395134,129.0413 Z M 120.86875,30.77125 L 132.04625,38.041252 102.18,13.38 Z M 138.28,112.16 L 120.86875,121.22375 116.322525,125.355484 Z M 125.001434,35.317474 L 132.04625,38.041252 120.86875,30.77125 Z M 138.28,112.16 L 125.001434,116.67845 120.86875,121.22375 Z M 128.68817,40.244865 L 132.04625,38.041252 125.001434,35.317474 Z M 138.28,112.16 L 128.68817,111.75197 125.001434,116.67845 Z M 131.89658,45.521034 L 132.04625,38.041252 128.68817,40.244865 Z M 138.28,112.16 L 131.89658,106.47664 128.68817,111.75197 Z M 134.59424,51.113594 L 132.04625,38.041252 131.89658,45.521034 Z M 138.28,112.16 L 134.59424,100.88484 131.89658,106.47664 Z M 136.7488,56.990154 L 132.04625,38.041252 134.59424,51.113594 Z M 138.28,112.16 L 136.7488,95.00891 134.59424,100.88484 Z M 138.32788,63.118336 L 132.04625,38.041252 136.7488,56.990154 Z M 143.65,76 L 136.7488,95.00891 138.28,112.16 Z M 138.32788,63.118336 L 143.65,76 132.04625,38.041252 Z M 143.65,76 L 138.32788,88.881226 136.7488,95.00891 Z M 139.29907,69.465744 L 143.65,76 138.32788,63.118336 Z M 143.65,76 L 139.29907,82.534134 138.32788,88.881226 Z M 139.63,76 L 143.65,76 139.29907,69.465744 Z M 143.65,76 L 139.63,76 139.29907,82.534134 Z " style="fill:#C948FF;fill-opacity:1;" />
</svg>
