<svg x="7.619995" y="7.9799957" viewBox="0 0 143.66 144.02" xmlns="http://www.w3.org/2000/svg">
	<path d="M 82.5837,143.6682 L 68.69464,143.6682 75.64,144.02 Z M 68.69464,143.6682 L 55.433876,140.95712 61.947792,142.63576 Z M 55.433876,140.95712 L 43.242626,135.79898 49.187344,138.66672 Z M 43.242626,135.79898 L 32.396393,128.46933 37.634163,132.38837 Z M 32.396393,128.46933 L 23.170681,119.24361 27.563751,124.07625 Z M 23.170681,119.24361 L 15.841007,108.39737 19.251621,114.00584 Z M 15.841007,108.39737 L 10.6828785,96.20612 12.973281,102.45266 Z M 10.6828785,96.20612 L 7.971799,82.94536 9.004238,89.692215 Z M 7.971799,82.94536 L 11.65,76 7.62,76 Z M 11.981039,69.465744 L 7.62,76 11.65,76 Z M 7.62,76 L 9.004238,62.307793 7.971799,69.05464 Z M 9.004238,62.307793 L 12.973281,49.547344 10.6828785,55.793877 Z M 12.973281,49.547344 L 19.251621,37.994164 15.841007,43.602627 Z M 19.251621,37.994164 L 27.563751,27.923752 23.170681,32.756393 Z M 27.563751,27.923752 L 37.634163,19.611622 32.396393,23.530682 Z M 37.634163,19.611622 L 49.187344,13.3332815 43.242626,16.201008 Z M 49.187344,13.3332815 L 61.947792,9.364239 55.433876,11.042879 Z M 61.947792,9.364239 L 75.64,7.98 68.69464,8.331799 Z M 75.64,7.98 L 89.332214,9.364239 82.58536,8.331799 Z M 89.332214,9.364239 L 102.09266,13.3332815 95.84612,11.042879 Z M 102.09266,13.3332815 L 113.645836,19.611622 108.03737,16.201008 Z M 113.645836,19.611622 L 123.71625,27.923752 118.883606,23.530682 Z M 123.71625,27.923752 L 132.02838,37.994164 128.10931,32.756393 Z M 132.02838,37.994164 L 138.30673,49.547344 135.439,43.602627 Z M 138.30673,49.547344 L 142.27577,62.307793 140.59714,55.793877 Z M 142.27577,62.307793 L 143.66,76 143.30821,69.05464 Z M 143.66,76 L 142.27536,89.692215 143.3081,82.94536 Z M 142.27536,89.692215 L 138.30531,102.45266 140.59627,96.20612 Z M 138.30531,102.45266 L 132.02574,114.00584 135.43698,108.39737 Z M 132.02574,114.00584 L 123.712494,124.07625 128.10608,119.24361 Z M 123.712494,124.07625 L 113.64143,132.38837 118.87945,128.46933 Z M 113.64143,132.38837 L 102.08844,138.66672 108.03294,135.79898 Z M 102.08844,138.66672 L 89.32933,142.63576 95.84241,140.95712 Z M 89.32933,142.63576 L 68.69464,143.6682 82.5837,143.6682 Z M 68.69464,143.6682 L 43.242626,135.79898 55.433876,140.95712 Z M 43.242626,135.79898 L 23.170681,119.24361 32.396393,128.46933 Z M 23.170681,119.24361 L 10.6828785,96.20612 15.841007,108.39737 Z M 10.6828785,96.20612 L 11.65,76 7.971799,82.94536 Z M 12.9525385,63.118336 L 7.62,76 11.981039,69.465744 Z M 7.62,76 L 12.973281,49.547344 9.004238,62.307793 Z M 12.973281,49.547344 L 27.563751,27.923752 19.251621,37.994164 Z M 27.563751,27.923752 L 49.187344,13.3332815 37.634163,19.611622 Z M 49.187344,13.3332815 L 75.64,7.98 61.947792,9.364239 Z M 75.64,7.98 L 102.09266,13.3332815 89.332214,9.364239 Z M 102.09266,13.3332815 L 123.71625,27.923752 113.645836,19.611622 Z M 123.71625,27.923752 L 138.30673,49.547344 132.02838,37.994164 Z M 138.30673,49.547344 L 143.66,76 142.27577,62.307793 Z M 143.66,76 L 138.30531,102.45266 142.27536,89.692215 Z M 138.30531,102.45266 L 123.712494,124.07625 132.02574,114.00584 Z M 123.712494,124.07625 L 102.08844,138.66672 113.64143,132.38837 Z M 102.08844,138.66672 L 68.69464,143.6682 89.32933,142.63576 Z M 10.6828785,96.20612 L 11.98093,82.534134 11.65,76 Z M 14.532064,56.990154 L 7.62,76 12.9525385,63.118336 Z M 10.6828785,96.20612 L 12.952129,88.881226 11.98093,82.534134 Z M 14.532064,56.990154 L 12.973281,49.547344 7.62,76 Z M 10.6828785,96.20612 L 14.531208,95.00891 12.952129,88.881226 Z M 16.687187,51.113594 L 12.973281,49.547344 14.532064,56.990154 Z M 23.170681,119.24361 L 14.531208,95.00891 10.6828785,96.20612 Z M 19.385473,45.521034 L 12.973281,49.547344 16.687187,51.113594 Z M 23.170681,119.24361 L 16.685781,100.88484 14.531208,95.00891 Z M 22.594494,40.244865 L 12.973281,49.547344 19.385473,45.521034 Z M 23.170681,119.24361 L 19.38346,106.47664 16.685781,100.88484 Z M 26.281813,35.317474 L 12.973281,49.547344 22.594494,40.244865 Z M 23.170681,119.24361 L 22.591854,111.75197 19.38346,106.47664 Z M 30.415,30.77125 L 12.973281,49.547344 26.281813,35.317474 Z M 23.170681,119.24361 L 26.27858,116.67845 22.591854,111.75197 Z M 30.415,30.77125 L 27.563751,27.923752 12.973281,49.547344 Z M 43.242626,135.79898 L 26.27858,116.67845 23.170681,119.24361 Z M 34.961628,26.63858 L 27.563751,27.923752 30.415,30.77125 Z M 43.242626,135.79898 L 30.41125,121.22375 26.27858,116.67845 Z M 39.88926,22.951855 L 27.563751,27.923752 34.961628,26.63858 Z M 43.242626,135.79898 L 34.957474,125.355484 30.41125,121.22375 Z M 45.165466,19.74346 L 27.563751,27.923752 39.88926,22.951855 Z M 43.242626,135.79898 L 39.884865,129.0413 34.957474,125.355484 Z M 50.757812,17.045782 L 27.563751,27.923752 45.165466,19.74346 Z M 43.242626,135.79898 L 45.161034,132.24884 39.884865,129.0413 Z M 50.757812,17.045782 L 49.187344,13.3332815 27.563751,27.923752 Z M 68.69464,143.6682 L 45.161034,132.24884 43.242626,135.79898 Z M 56.633873,14.89121 L 49.187344,13.3332815 50.757812,17.045782 Z M 68.69464,143.6682 L 50.753593,134.94577 45.161034,132.24884 Z M 62.761208,13.31213 L 49.187344,13.3332815 56.633873,14.89121 Z M 68.69464,143.6682 L 56.630154,137.0997 50.753593,134.94577 Z M 69.10739,12.340931 L 49.187344,13.3332815 62.761208,13.31213 Z M 68.69464,143.6682 L 62.758335,138.67828 56.630154,137.0997 Z M 75.64,12.01 L 49.187344,13.3332815 69.10739,12.340931 Z M 68.69464,143.6682 L 69.10574,139.64917 62.758335,138.67828 Z M 75.64,12.01 L 75.64,7.98 49.187344,13.3332815 Z M 68.69464,143.6682 L 75.64,139.98 69.10574,139.64917 Z M 82.17261,12.34104 L 75.64,7.98 75.64,12.01 Z M 102.08844,138.66672 L 75.64,139.98 68.69464,143.6682 Z M 88.51879,13.312539 L 75.64,7.98 82.17261,12.34104 Z M 102.08844,138.66672 L 82.174255,139.64906 75.64,139.98 Z M 94.646126,14.892065 L 75.64,7.98 88.51879,13.312539 Z M 102.08844,138.66672 L 88.52167,138.67789 82.174255,139.64906 Z M 94.646126,14.892065 L 102.09266,13.3332815 75.64,7.98 Z M 102.08844,138.66672 L 94.64984,137.09885 88.52167,138.67789 Z M 100.52219,17.047188 L 102.09266,13.3332815 94.646126,14.892065 Z M 102.08844,138.66672 L 100.526405,134.94437 94.64984,137.09885 Z M 106.11453,19.745474 L 102.09266,13.3332815 100.52219,17.047188 Z M 123.712494,124.07625 L 100.526405,134.94437 102.08844,138.66672 Z M 111.39074,22.954494 L 102.09266,13.3332815 106.11453,19.745474 Z M 123.712494,124.07625 L 106.118965,132.24683 100.526405,134.94437 Z M 116.318375,26.641813 L 102.09266,13.3332815 111.39074,22.954494 Z M 123.712494,124.07625 L 111.395134,129.03867 106.118965,132.24683 Z M 120.865,30.775002 L 102.09266,13.3332815 116.318375,26.641813 Z M 123.712494,124.07625 L 116.322525,125.35225 111.395134,129.03867 Z M 120.865,30.775002 L 123.71625,27.923752 102.09266,13.3332815 Z M 123.712494,124.07625 L 120.86875,121.21999 116.322525,125.35225 Z M 124.998184,35.32163 L 123.71625,27.923752 120.865,30.775002 Z M 138.30531,102.45266 L 120.86875,121.21999 123.712494,124.07625 Z M 128.6855,40.24926 L 123.71625,27.923752 124.998184,35.32163 Z M 138.30531,102.45266 L 125.001434,116.6743 120.86875,121.21999 Z M 131.89453,45.525467 L 123.71625,27.923752 128.6855,40.24926 Z M 138.30531,102.45266 L 128.68817,111.747574 125.001434,116.6743 Z M 134.59282,51.117813 L 123.71625,27.923752 131.89453,45.525467 Z M 138.30531,102.45266 L 131.89658,106.47221 128.68817,111.747574 Z M 134.59282,51.117813 L 138.30673,49.547344 123.71625,27.923752 Z M 138.30531,102.45266 L 134.59424,100.880615 131.89658,106.47221 Z M 136.74796,56.993874 L 138.30673,49.547344 134.59282,51.117813 Z M 138.30531,102.45266 L 136.7488,95.0052 134.59424,100.880615 Z M 138.32747,63.12121 L 138.30673,49.547344 136.74796,56.993874 Z M 143.66,76 L 136.7488,95.0052 138.30531,102.45266 Z M 139.29897,69.46739 L 138.30673,49.547344 138.32747,63.12121 Z M 143.66,76 L 138.32788,88.87836 136.7488,95.0052 Z M 139.63,76 L 138.30673,49.547344 139.29897,69.46739 Z M 143.66,76 L 139.29907,82.53249 138.32788,88.87836 Z M 139.63,76 L 143.66,76 138.30673,49.547344 Z M 143.66,76 L 139.63,76 139.29907,82.53249 Z " style="fill:#16A531;fill-opacity:1;" />
</svg>
