<svg x="3.2700043" y="7.9799995" viewBox="0 0 148 144.04" xmlns="http://www.w3.org/2000/svg">
	<path d="M 143.95,52.37 L 148,76.01 146.98375,64.036255 Z M 147.98,76.01 L 143.93,99.65 146.96375,87.9875 Z M 138.26,102.57 L 128.05516,119.32234 133.74698,111.34303 Z M 128.05516,119.32234 L 113.598755,132.43625 121.30045,126.392044 Z M 113.598755,132.43625 L 95.81797,140.98453 105.065956,137.33904 Z M 95.81797,140.98453 L 75.64,144.04 85.97069,143.2568 Z M 75.64,144.04 L 55.46344,140.98608 65.30973,143.25723 Z M 55.46344,140.98608 L 37.685,132.44125 46.21668,137.3422 Z M 37.685,132.44125 L 23.229065,119.33078 29.983948,126.39889 Z M 23.229065,119.33078 L 13.02,102.58 17.535898,111.3526 Z M 13.02,102.58 L 4.28625,87.98375 7.32,99.65 Z M 4.28625,87.98375 L 11.65,76.01 3.27,76.01 Z M 75.64,139.99 L 82.174255,139.64917 75.64,139.98 Z M 11.981039,69.477295 L 3.27,76.01 11.65,76.01 Z M 3.27,76.01 L 7.32,52.37 4.28625,64.036255 Z M 13.02,49.44 L 23.229065,32.689217 17.535898,40.6674 Z M 23.229065,32.689217 L 37.685,19.57875 29.983948,25.621115 Z M 37.685,19.57875 L 55.46344,11.033906 46.21668,14.6777935 Z M 55.46344,11.033906 L 75.64,7.98 65.30973,8.762754 Z M 75.64,7.98 L 95.81656,11.03375 85.97027,8.762734 Z M 95.81656,11.03375 L 113.595,19.5775 105.06332,14.677264 Z M 113.595,19.5775 L 128.05093,32.685 121.29605,25.618671 Z M 128.05093,32.685 L 138.26,49.43 133.7441,40.660706 Z M 138.26,49.43 L 143.95,52.37 143.96,52.36 Z M 143.95,52.37 L 147.98,76.01 148,76.01 Z M 147.98,76.01 L 138.26,102.57 143.93,99.65 Z M 138.26,102.57 L 113.598755,132.43625 128.05516,119.32234 Z M 113.598755,132.43625 L 75.64,144.04 95.81797,140.98453 Z M 75.64,144.04 L 37.685,132.44125 55.46344,140.98608 Z M 37.685,132.44125 L 13.02,102.58 23.229065,119.33078 Z M 4.28625,87.98375 L 11.981039,82.54249 11.65,76.01 Z M 12.9525385,63.130783 L 3.27,76.01 11.981039,69.477295 Z M 3.27,76.01 L 13.02,49.44 7.32,52.37 Z M 13.02,49.44 L 37.685,19.57875 23.229065,32.689217 Z M 37.685,19.57875 L 75.64,7.98 55.46344,11.033906 Z M 75.64,7.98 L 113.595,19.5775 95.81656,11.03375 Z M 113.595,19.5775 L 138.26,49.43 128.05093,32.685 Z M 138.26,49.43 L 147.98,76.01 143.95,52.37 Z M 37.685,132.44125 L 4.28625,87.98375 13.02,102.58 Z M 4.28625,87.98375 L 12.9525385,88.88836 11.981039,82.54249 Z M 14.532064,57.00295 L 3.27,76.01 12.9525385,63.130783 Z M 4.28625,87.98375 L 14.532064,95.01521 12.9525385,88.88836 Z M 16.687187,51.12625 L 3.27,76.01 14.532064,57.00295 Z M 4.28625,87.98375 L 16.687187,100.890625 14.532064,95.01521 Z M 19.385473,45.533146 L 3.27,76.01 16.687187,51.12625 Z M 4.28625,87.98375 L 19.385473,106.48222 16.687187,100.890625 Z M 19.385473,45.533146 L 13.02,49.44 3.27,76.01 Z M 4.28625,87.98375 L 22.594494,111.75758 19.385473,106.48222 Z M 22.594494,40.256096 L 13.02,49.44 19.385473,45.533146 Z M 37.685,132.44125 L 22.594494,111.75758 4.28625,87.98375 Z M 26.281813,35.32756 L 13.02,49.44 22.594494,40.256096 Z M 37.685,132.44125 L 26.281813,116.68431 22.594494,111.75758 Z M 30.415,30.78 L 13.02,49.44 26.281813,35.32756 Z M 37.685,132.44125 L 30.415,121.23 26.281813,116.68431 Z M 30.415,30.78 L 37.685,19.57875 13.02,49.44 Z M 37.685,132.44125 L 34.961628,125.36226 30.415,121.23 Z M 34.961628,26.645878 L 37.685,19.57875 30.415,30.78 Z M 37.685,132.44125 L 39.88926,129.04868 34.961628,125.36226 Z M 39.88926,22.957655 L 37.685,19.57875 34.961628,26.645878 Z M 37.685,132.44125 L 45.165466,132.25684 39.88926,129.04868 Z M 45.165466,19.747791 L 37.685,19.57875 39.88926,22.957655 Z M 37.685,132.44125 L 50.757812,134.95438 45.165466,132.25684 Z M 50.757812,17.04875 L 37.685,19.57875 45.165466,19.747791 Z M 37.685,132.44125 L 56.633873,137.10886 50.757812,134.95438 Z M 56.633873,14.892988 L 37.685,19.57875 50.757812,17.04875 Z M 75.64,144.04 L 56.633873,137.10886 37.685,132.44125 Z M 62.761208,13.312969 L 37.685,19.57875 56.633873,14.892988 Z M 75.64,144.04 L 62.761208,138.6879 56.633873,137.10886 Z M 62.761208,13.312969 L 75.64,7.98 37.685,19.57875 Z M 75.64,144.04 L 69.10739,139.65907 62.761208,138.6879 Z M 69.10739,12.341152 L 75.64,7.98 62.761208,13.312969 Z M 75.64,144.04 L 75.64,139.99 69.10739,139.65907 Z M 75.64,12.01 L 75.64,7.98 69.10739,12.341152 Z M 75.64,144.04 L 82.174255,139.64917 75.64,139.99 Z M 82.17261,12.340931 L 75.64,7.98 75.64,12.01 Z M 75.64,144.04 L 88.52167,138.67828 82.174255,139.64917 Z M 88.51879,13.31213 L 75.64,7.98 82.17261,12.340931 Z M 113.598755,132.43625 L 88.52167,138.67828 75.64,144.04 Z M 94.646126,14.89121 L 75.64,7.98 88.51879,13.31213 Z M 113.598755,132.43625 L 94.64984,137.0997 88.52167,138.67828 Z M 94.646126,14.89121 L 113.595,19.5775 75.64,7.98 Z M 113.598755,132.43625 L 100.526405,134.94577 94.64984,137.0997 Z M 100.52219,17.045782 L 113.595,19.5775 94.646126,14.89121 Z M 113.598755,132.43625 L 106.118965,132.24884 100.526405,134.94577 Z M 106.11453,19.74346 L 113.595,19.5775 100.52219,17.045782 Z M 113.598755,132.43625 L 111.395134,129.0413 106.118965,132.24884 Z M 111.39074,22.951855 L 113.595,19.5775 106.11453,19.74346 Z M 113.598755,132.43625 L 116.322525,125.355484 111.395134,129.0413 Z M 116.318375,26.63858 L 113.595,19.5775 111.39074,22.951855 Z M 113.598755,132.43625 L 120.86875,121.22375 116.322525,125.355484 Z M 120.865,30.77125 L 113.595,19.5775 116.318375,26.63858 Z M 138.26,102.57 L 120.86875,121.22375 113.598755,132.43625 Z M 124.998184,35.317474 L 113.595,19.5775 120.865,30.77125 Z M 138.26,102.57 L 125.001434,116.67845 120.86875,121.22375 Z M 128.6855,40.244865 L 113.595,19.5775 124.998184,35.317474 Z M 138.26,102.57 L 128.68817,111.75197 125.001434,116.67845 Z M 128.6855,40.244865 L 138.26,49.43 113.595,19.5775 Z M 138.26,102.57 L 131.89658,106.47664 128.68817,111.75197 Z M 131.89453,45.521034 L 138.26,49.43 128.6855,40.244865 Z M 147.98,76.01 L 131.89658,106.47664 138.26,102.57 Z M 134.59282,51.113594 L 138.26,49.43 131.89453,45.521034 Z M 147.98,76.01 L 134.59424,100.88484 131.89658,106.47664 Z M 136.74796,56.990154 L 138.26,49.43 134.59282,51.113594 Z M 147.98,76.01 L 136.7488,95.00891 134.59424,100.88484 Z M 138.32747,63.118336 L 138.26,49.43 136.74796,56.990154 Z M 147.98,76.01 L 138.32788,88.881226 136.7488,95.00891 Z M 139.29897,69.465744 L 138.26,49.43 138.32747,63.118336 Z M 147.98,76.01 L 139.29907,82.534134 138.32788,88.881226 Z M 139.29897,69.465744 L 147.98,76.01 138.26,49.43 Z M 147.98,76.01 L 139.63,76 139.29907,82.534134 Z M 139.63,76 L 147.98,76.01 139.29897,69.465744 Z " style="fill:#05A0FA;fill-opacity:1;" />
</svg>
