<svg x="4.200001" y="2.5" viewBox="0 0 35.8 35.9" xmlns="http://www.w3.org/2000/svg">
	<path d="M 33.658012,16.360939 L 34.82969,15.829687 34.2,15.5 Z M 34.82969,15.829687 L 35.676563,16.976562 35.3375,16.3375 Z M 35.676563,16.976562 L 35.8,22.3 35.8,17.7 Z M 35.8,22.3 L 35.137497,23.9375 35.623436,23.207813 Z M 35.137497,23.9375 L 33.5,24.6 34.40781,24.423439 Z M 24.6,24.6 L 24.423439,34.507812 24.6,33.6 Z M 24.423439,34.507812 L 23.207813,35.72344 23.9375,35.237503 Z M 23.207813,35.72344 L 17.7,35.9 22.3,35.9 Z M 17.7,35.9 L 16.0625,35.237503 16.792187,35.72344 Z M 16.0625,35.237503 L 15.4,33.6 15.576562,34.507812 Z M 15.4,24.6 L 5.5921874,24.423439 6.5,24.6 Z M 5.5921874,24.423439 L 4.376562,23.207813 4.8624997,23.9375 Z M 4.376562,23.207813 L 4.2,17.7 4.2,22.3 Z M 4.2,17.7 L 4.8624997,16.0625 4.376562,16.792187 Z M 4.8624997,16.0625 L 6.5,15.4 5.5921874,15.576562 Z M 15.4,15.4 L 15.576562,5.4921875 15.4,6.4 Z M 15.576562,5.4921875 L 16.792187,4.2765627 16.0625,4.7625 Z M 16.792187,4.2765627 L 22.3,4.1 17.7,4.1 Z M 22.3,4.1 L 23.3125,4.325 22.820312,4.15625 Z M 23.3125,4.325 L 24.1,5 23.748438,4.60625 Z M 33.014065,17.1375 L 34.82969,15.829687 33.658012,16.360939 Z M 34.82969,15.829687 L 35.8,22.3 35.676563,16.976562 Z M 35.8,22.3 L 33.5,24.6 35.137497,23.9375 Z M 24.6,24.6 L 23.207813,35.72344 24.423439,34.507812 Z M 23.207813,35.72344 L 16.0625,35.237503 17.7,35.9 Z M 16.0625,35.237503 L 15.4,24.6 15.4,33.6 Z M 15.4,24.6 L 4.376562,23.207813 5.5921874,24.423439 Z M 4.376562,23.207813 L 4.8624997,16.0625 4.2,17.7 Z M 4.8624997,16.0625 L 15.4,15.4 6.5,15.4 Z M 15.4,15.4 L 16.792187,4.2765627 15.576562,5.4921875 Z M 16.792187,4.2765627 L 23.3125,4.325 22.3,4.1 Z M 23.3125,4.325 L 22.446877,5.964062 24.1,5 Z M 32.278713,17.820312 L 34.82969,15.829687 33.014065,17.1375 Z M 34.82969,15.829687 L 33.5,24.6 35.8,22.3 Z M 24.6,24.6 L 16.0625,35.237503 23.207813,35.72344 Z M 15.4,24.6 L 4.8624997,16.0625 4.376562,23.207813 Z M 16.792187,4.2765627 L 22.446877,5.964062 23.3125,4.325 Z M 32.278713,17.820312 L 33.5,24.6 34.82969,15.829687 Z M 24.6,24.6 L 15.4,24.6 16.0625,35.237503 Z M 15.4,24.6 L 15.4,15.4 4.8624997,16.0625 Z M 16.792187,4.2765627 L 21.748047,6.545117 22.446877,5.964062 Z M 31.462502,18.400002 L 33.5,24.6 32.278713,17.820312 Z M 24.6,24.6 L 15.4,15.4 15.4,24.6 Z M 16.792187,4.2765627 L 21.15,7.2375 21.748047,6.545117 Z M 30.575977,18.867188 L 33.5,24.6 31.462502,18.400002 Z M 33.5,24.6 L 15.4,15.4 24.6,24.6 Z M 15.4,15.4 L 21.15,7.2375 16.792187,4.2765627 Z M 29.629688,19.2125 L 33.5,24.6 30.575977,18.867188 Z M 15.4,15.4 L 20.664452,8.075195 21.15,7.2375 Z M 28.63418,19.426563 L 33.5,24.6 29.629688,19.2125 Z M 15.4,15.4 L 20.303125,9.092188 20.664452,8.075195 Z M 27.6,19.5 L 33.5,24.6 28.63418,19.426563 Z M 15.4,15.4 L 20.077734,10.322461 20.303125,9.092188 Z M 26.82251,19.460766 L 33.5,24.6 27.6,19.5 Z M 15.4,15.4 L 20,11.8 20.077734,10.322461 Z M 26.067577,19.345509 L 33.5,24.6 26.82251,19.460766 Z M 15.4,15.4 L 20.039207,12.595093 20,11.8 Z M 25.339012,19.157887 L 33.5,24.6 26.067577,19.345509 Z M 15.4,15.4 L 20.154297,13.365429 20.039207,12.595093 Z M 24.640625,18.901562 L 33.5,24.6 25.339012,19.157887 Z M 15.4,15.4 L 20.341454,14.107349 20.154297,13.365429 Z M 23.97622,18.5802 L 33.5,24.6 24.640625,18.901562 Z M 15.4,15.4 L 20.596874,14.817188 20.341454,14.107349 Z M 23.34961,18.19746 L 33.5,24.6 23.97622,18.5802 Z M 15.4,15.4 L 20.916748,15.491285 20.596874,14.817188 Z M 23.34961,18.19746 L 15.4,15.4 33.5,24.6 Z M 15.4,15.4 L 21.297266,16.125977 20.916748,15.491285 Z M 22.764599,17.757008 L 15.4,15.4 23.34961,18.19746 Z M 15.4,15.4 L 21.73462,16.717602 21.297266,16.125977 Z M 22.225,17.2625 L 15.4,15.4 22.764599,17.757008 Z M 15.4,15.4 L 22.225,17.2625 21.73462,16.717602 Z " style="fill:#FFE000;fill-opacity:1;" />
	<path d="M 31.629688,10.659374 L 31.837498,11.915625 31.8,11.3 Z M 31.837498,11.915625 L 31.6875,13.184376 31.8,12.55 Z M 31.6875,13.184376 L 31.223436,14.364062 31.5,13.8 Z M 31.223436,14.364062 L 30,15.7 30.8625,14.862499 Z M 30,15.7 L 28.9375,16.2375 29.473438,16.020313 Z M 28.9375,16.2375 L 27.8,16.4 28.382812,16.360937 Z M 27.8,16.4 L 26.625,16.2375 27.203125,16.360937 Z M 26.625,16.2375 L 25.6,15.7 26.084375,16.020313 Z M 25.6,15.7 L 24.7,14.862499 25.112501,15.3046875 Z M 24.7,14.862499 L 24.1,13.8 24.362501,14.364062 Z M 24.1,13.8 L 23.8375,12.5875 23.926563,13.198437 Z M 23.8375,12.5875 L 23.914062,10.701562 23.8,11.3 Z M 23.914062,10.701562 L 24.404686,9.542189 24.1125,10.1125 Z M 27.176563,4.78125 L 27.6875,3.1375 27.5,3.7 Z M 27.6875,3.1375 L 29,6.0125003 28.1,3.7 Z M 29.759375,7.4546876 L 31.139061,9.528125 30.8,9 Z M 31.139061,9.528125 L 31.629688,10.659374 31.4125,10.075 Z M 31.629688,10.659374 L 31.6875,13.184376 31.837498,11.915625 Z M 31.6875,13.184376 L 30,15.7 31.223436,14.364062 Z M 30,15.7 L 27.8,16.4 28.9375,16.2375 Z M 27.8,16.4 L 25.6,15.7 26.625,16.2375 Z M 25.6,15.7 L 24.1,13.8 24.7,14.862499 Z M 24.1,13.8 L 23.914062,10.701562 23.8375,12.5875 Z M 23.914062,10.701562 L 24.8,9 24.404686,9.542189 Z M 27.176563,4.78125 L 29,6.0125003 27.6875,3.1375 Z M 29.759375,7.4546876 L 31.629688,10.659374 31.139061,9.528125 Z M 31.629688,10.659374 L 30,15.7 31.6875,13.184376 Z M 30,15.7 L 25.6,15.7 27.8,16.4 Z M 25.6,15.7 L 23.914062,10.701562 24.1,13.8 Z M 23.914062,10.701562 L 25.854687,7.46875 24.8,9 Z M 26.6375,6.0499997 L 29,6.0125003 27.176563,4.78125 Z M 29.759375,7.4546876 L 30,15.7 31.629688,10.659374 Z M 30,15.7 L 23.914062,10.701562 25.6,15.7 Z M 25.854687,7.46875 L 29,6.0125003 26.6375,6.0499997 Z M 29,6.0125003 L 30,15.7 29.759375,7.4546876 Z M 30,15.7 L 25.854687,7.46875 23.914062,10.701562 Z M 25.854687,7.46875 L 30,15.7 29,6.0125003 Z " style="fill:#FFFFFF;fill-opacity:1;" />
</svg>
