<svg x="4.8999996" y="0.8000002" viewBox="0 0 34.8 38.600002" xmlns="http://www.w3.org/2000/svg">
	<path d="M 17.4,12.7 L 19.1,10 19,8.7 Z M 19.1,10 L 16.8,16.3 18.5,14.1 Z M 16.8,16.3 L 19.1,10 17.4,12.7 Z " style="fill:#DA3331;fill-opacity:1;" />
	<path d="M 13.8,16.4 L 12.7,24.4 13.5,19.5 Z M 19.1,17.8 L 20.309376,15.254687 19.825,16.1375 Z M 20.309376,15.254687 L 27.6375,7.75 20.7,14.7 Z M 27.6375,7.75 L 33.837303,2.1847656 32.273438,3.421875 Z M 33.837303,2.1847656 L 34.53301,2.5273438 34.5,2 Z M 34.53301,2.5273438 L 33.9125,4.7 34.42656,3.18125 Z M 33.9125,4.7 L 27.9,13.1 32.5,7.4 Z M 25.2,18.1 L 14,32.4 29.6,15.3 Z M 13.8,16.4 L 12.25,26.6875 12.7,24.4 Z M 17.8875,20.375 L 20.309376,15.254687 19.1,17.8 Z M 20.309376,15.254687 L 33.837303,2.1847656 27.6375,7.75 Z M 33.837303,2.1847656 L 33.9125,4.7 34.53301,2.5273438 Z M 26.1375,16.1625 L 14,32.4 25.2,18.1 Z M 13.8,16.4 L 12.053125,27.732811 12.25,26.6875 Z M 17.8875,20.375 L 33.837303,2.1847656 20.309376,15.254687 Z M 33.837303,2.1847656 L 27.9,13.1 33.9125,4.7 Z M 27.9,13.1 L 14,32.4 26.1375,16.1625 Z M 16.3,23.1 L 33.837303,2.1847656 17.8875,20.375 Z M 33.837303,2.1847656 L 14,32.4 27.9,13.1 Z M 14.924999,25.050001 L 33.837303,2.1847656 16.3,23.1 Z M 33.837303,2.1847656 L 4.9,38.6 14,32.4 Z M 13.7,26.7 L 33.837303,2.1847656 14.924999,25.050001 Z M 12.825,27.800001 L 33.837303,2.1847656 13.7,26.7 Z M 12.825,27.800001 L 4.9,38.6 33.837303,2.1847656 Z M 12.40625,28.246876 L 4.9,38.6 12.825,27.800001 Z M 12.1,28.3 L 4.9,38.6 12.40625,28.246876 Z M 12.053125,27.732811 L 4.9,38.6 12.1,28.3 Z M 13.8,16.4 L 4.9,38.6 12.053125,27.732811 Z " style="fill:#DA3331;fill-opacity:1;" />
	<path d="M 19.55,30.125 L 27.8125,28.1875 23,28.4 Z M 27.8125,28.1875 L 32.08223,28.122461 31.057816,28.104687 Z M 32.08223,28.122461 L 27.6,30.775002 32.4,28.2 Z M 27.6,30.775002 L 22.769531,32.968754 24.131248,32.41875 Z M 22.769531,32.968754 L 21.220118,33.18535 21.9,33.2 Z M 21.220118,33.18535 L 18.4375,32.7125 20.360937,33.08281 Z M 18.4375,32.7125 L 16.1,32 16.795313,32.285934 Z M 16.1,32 L 17.178125,31.353127 16.396484,31.787891 Z M 17.178125,31.353127 L 27.8125,28.1875 19.55,30.125 Z M 27.8125,28.1875 L 27.6,30.775002 32.08223,28.122461 Z M 27.6,30.775002 L 21.220118,33.18535 22.769531,32.968754 Z M 21.220118,33.18535 L 16.1,32 18.4375,32.7125 Z M 16.1,32 L 27.8125,28.1875 17.178125,31.353127 Z M 27.8125,28.1875 L 21.220118,33.18535 27.6,30.775002 Z M 21.220118,33.18535 L 27.8125,28.1875 16.1,32 Z " style="fill:#DA3331;fill-opacity:1;" />
</svg>
