<svg x="3" y="1.2000008" viewBox="0 0 37.4 38.499996" xmlns="http://www.w3.org/2000/svg">
	<path d="M 37.303177,17.910206 L 37.4,19.9 37.4,19.8 Z M 37.4,19.9 L 37.023243,23.656445 37.304276,21.806274 Z M 37.023243,23.656445 L 35.942192,27.151562 36.56614,25.441284 Z M 35.942192,27.151562 L 34.230667,30.311523 35.16062,28.778051 Z M 34.230667,30.311523 L 31.962502,33.0625 33.161552,31.74275 Z M 31.962502,33.0625 L 29.211525,35.330666 30.64275,34.26155 Z M 29.211525,35.330666 L 26.051563,37.04219 27.678053,36.26062 Z M 26.051563,37.04219 L 22.556446,38.12324 24.341286,37.666138 Z M 22.556446,38.12324 L 18.8,38.5 20.706276,38.404274 Z M 18.8,38.5 L 11.573633,37.956833 13.154687,38.257812 Z M 11.573633,37.956833 L 10.537499,37.5375 11.000708,37.761887 Z M 10.537499,37.5375 L 9.251562,36.34844 9.834179,37.000977 Z M 7.6,34.7 L 4.4874997,37.4125 5,37.3 Z M 4.4874997,37.4125 L 3,28.5 4.2,37 Z M 3,28.5 L 3.6,27.9 3.15,28.0875 Z M 3.6,27.9 L 12.6125,29.425 12.2,29.1 Z M 12.6125,29.425 L 10,32.4 12.5,29.9 Z M 7.7218747,8.729687 L 3,10.3 5.7,11.9 Z M 3,10.3 L 5.8484373,6.5578127 4.2982426,8.329883 Z M 5.8484373,6.5578127 L 9.5875,3.6875 7.6212893,5.0037107 Z M 9.5875,3.6875 L 13.982813,1.8484374 11.717773,2.6291013 Z M 13.982813,1.8484374 L 18.8,1.2 16.353321,1.3654296 Z M 18.8,1.2 L 22.527733,1.5808594 20.689793,1.2968261 Z M 22.527733,1.5808594 L 26.009373,2.671875 24.30415,2.0424318 Z M 26.009373,2.671875 L 29.167578,4.3957033 27.63374,3.4595218 Z M 29.167578,4.3957033 L 34.2043,9.432423 31.925001,6.675 Z M 34.2043,9.432423 L 35.928127,12.590625 35.14048,10.96626 Z M 35.928127,12.590625 L 37.019142,16.072266 36.55757,14.29585 Z M 37.019142,16.072266 L 37.4,19.9 37.303177,17.910206 Z M 37.4,19.9 L 35.942192,27.151562 37.023243,23.656445 Z M 35.942192,27.151562 L 31.962502,33.0625 34.230667,30.311523 Z M 31.962502,33.0625 L 26.051563,37.04219 29.211525,35.330666 Z M 26.051563,37.04219 L 18.8,38.5 22.556446,38.12324 Z M 18.8,38.5 L 10.537499,37.5375 11.573633,37.956833 Z M 10.537499,37.5375 L 8.5775385,35.581055 9.251562,36.34844 Z M 7.6,34.7 L 3,28.5 4.4874997,37.4125 Z M 3,28.5 L 12.6125,29.425 3.6,27.9 Z M 8.853516,7.4298825 L 3,10.3 7.7218747,8.729687 Z M 3,10.3 L 9.5875,3.6875 5.8484373,6.5578127 Z M 9.5875,3.6875 L 18.8,1.2 13.982813,1.8484374 Z M 18.8,1.2 L 26.009373,2.671875 22.527733,1.5808594 Z M 26.009373,2.671875 L 34.2043,9.432423 29.167578,4.3957033 Z M 34.2043,9.432423 L 37.019142,16.072266 35.928127,12.590625 Z M 37.019142,16.072266 L 35.942192,27.151562 37.4,19.9 Z M 35.942192,27.151562 L 26.051563,37.04219 31.962502,33.0625 Z M 26.051563,37.04219 L 10.537499,37.5375 18.8,38.5 Z M 8.5775385,35.581055 L 3,28.5 7.6,34.7 Z M 3,28.5 L 10,32.4 12.6125,29.425 Z M 10.175,6.3374996 L 3,10.3 8.853516,7.4298825 Z M 3,10.3 L 18.8,1.2 9.5875,3.6875 Z M 18.8,1.2 L 34.2043,9.432423 26.009373,2.671875 Z M 34.2043,9.432423 L 35.942192,27.151562 37.019142,16.072266 Z M 26.051563,37.04219 L 8.5775385,35.581055 10.537499,37.5375 Z M 8.5775385,35.581055 L 10,32.4 3,28.5 Z M 10.932568,5.8731194 L 3,10.3 10.175,6.3374996 Z M 8.5775385,35.581055 L 12.0390625,33.654686 10,32.4 Z M 10.932568,5.8731194 L 18.8,1.2 3,10.3 Z M 8.5775385,35.581055 L 14.2375,34.5625 12.0390625,33.654686 Z M 11.76836,5.4654293 L 18.8,1.2 10.932568,5.8731194 Z M 8.5775385,35.581055 L 16.567186,35.11406 14.2375,34.5625 Z M 13.715625,4.826563 L 18.8,1.2 11.76836,5.4654293 Z M 26.051563,37.04219 L 16.567186,35.11406 8.5775385,35.581055 Z M 16.098827,4.4337893 L 18.8,1.2 13.715625,4.826563 Z M 26.051563,37.04219 L 19,35.3 16.567186,35.11406 Z M 19,4.3 L 18.8,1.2 16.098827,4.4337893 Z M 26.051563,37.04219 L 20.573706,35.22041 19,35.3 Z M 20.573706,4.37959 L 18.8,1.2 19,4.3 Z M 26.051563,37.04219 L 22.10215,34.986717 20.573706,35.22041 Z M 22.10215,4.6132812 L 18.8,1.2 20.573706,4.37959 Z M 26.051563,37.04219 L 23.577564,34.606544 22.10215,34.986717 Z M 23.577564,4.9934573 L 18.8,1.2 22.10215,4.6132812 Z M 26.051563,37.04219 L 24.992188,34.0875 23.577564,34.606544 Z M 24.992188,5.5125003 L 18.8,1.2 23.577564,4.9934573 Z M 26.051563,37.04219 L 26.338257,33.43721 24.992188,34.0875 Z M 26.338257,6.162793 L 18.8,1.2 24.992188,5.5125003 Z M 26.051563,37.04219 L 27.60801,32.66328 26.338257,33.43721 Z M 27.60801,6.936719 L 18.8,1.2 26.338257,6.162793 Z M 35.942192,27.151562 L 27.60801,32.66328 26.051563,37.04219 Z M 27.60801,6.936719 L 34.2043,9.432423 18.8,1.2 Z M 35.942192,27.151562 L 28.793678,31.773338 27.60801,32.66328 Z M 28.793678,7.82666 L 34.2043,9.432423 27.60801,6.936719 Z M 35.942192,27.151562 L 29.8875,30.774998 28.793678,31.773338 Z M 29.8875,8.825 L 34.2043,9.432423 28.793678,7.82666 Z M 35.942192,27.151562 L 30.881716,29.675877 29.8875,30.774998 Z M 30.881716,9.924122 L 34.2043,9.432423 29.8875,8.825 Z M 35.942192,27.151562 L 31.768555,28.483593 30.881716,29.675877 Z M 31.768555,11.116406 L 34.2043,9.432423 30.881716,9.924122 Z M 35.942192,27.151562 L 32.54026,27.205761 31.768555,28.483593 Z M 32.54026,12.394238 L 34.2043,9.432423 31.768555,11.116406 Z M 35.942192,27.151562 L 33.189064,25.849998 32.54026,27.205761 Z M 33.189064,13.75 L 34.2043,9.432423 32.54026,12.394238 Z M 35.942192,27.151562 L 33.707203,24.423923 33.189064,25.849998 Z M 33.707203,15.176074 L 34.2043,9.432423 33.189064,13.75 Z M 35.942192,27.151562 L 34.086914,22.935154 33.707203,24.423923 Z M 34.086914,16.664843 L 34.2043,9.432423 33.707203,15.176074 Z M 35.942192,27.151562 L 34.320435,21.391308 34.086914,22.935154 Z M 34.320435,18.20869 L 34.2043,9.432423 34.086914,16.664843 Z M 35.942192,27.151562 L 34.4,19.8 34.320435,21.391308 Z M 34.4,19.8 L 34.2043,9.432423 34.320435,18.20869 Z M 34.2043,9.432423 L 34.4,19.8 35.942192,27.151562 Z " style="fill:#5CB4E5;fill-opacity:1;" />
	<path d="M 24.1,18.7 L 25.103127,18.98125 24.2,18.7 Z M 25.103127,18.98125 L 25.746874,20.55625 25.650002,19.675 Z M 25.746874,20.55625 L 19.7,27 25.3,21.4 Z M 19.7,27 L 18.6,27.45 19.1875,27.337502 Z M 18.6,27.45 L 17.5,27 18.0125,27.337502 Z M 17.5,27 L 11.453125,20.55625 11.9,21.4 Z M 11.453125,20.55625 L 12.096875,18.98125 11.549999,19.675 Z M 12.096875,18.98125 L 24.1,18.7 13,18.7 Z M 24.1,18.7 L 25.746874,20.55625 25.103127,18.98125 Z M 25.746874,20.55625 L 18.6,27.45 19.7,27 Z M 18.6,27.45 L 11.453125,20.55625 17.5,27 Z M 11.453125,20.55625 L 24.1,18.7 12.096875,18.98125 Z M 24.1,18.7 L 18.6,27.45 25.746874,20.55625 Z M 18.6,27.45 L 24.1,18.7 11.453125,20.55625 Z " style="fill:#FFFFFF;fill-opacity:1;" />
	<path d="M 22,11 L 22.673437,11.165625 22.1,11 Z M 22.673437,11.165625 L 23.070312,12.096875 23.0125,11.575 Z M 23.070312,12.096875 L 19.3,16 22.8,12.6 Z M 19.3,16 L 17.9,16 18.599998,16.3 Z M 17.9,16 L 14.129688,12.096875 14.4,12.6 Z M 14.129688,12.096875 L 14.526562,11.165625 14.1875,11.575 Z M 14.526562,11.165625 L 22,11 15.1,11 Z M 22,11 L 23.070312,12.096875 22.673437,11.165625 Z M 23.070312,12.096875 L 17.9,16 19.3,16 Z M 17.9,16 L 14.526562,11.165625 14.129688,12.096875 Z M 14.526562,11.165625 L 23.070312,12.096875 22,11 Z M 23.070312,12.096875 L 14.526562,11.165625 17.9,16 Z " style="fill:#FFFFFF;fill-opacity:0.5;" />
</svg>
