<svg x="2.6" y="2.1000004" viewBox="0 0 36.7 37.9" xmlns="http://www.w3.org/2000/svg">
	<path d="M 10.8,30.4 L 2.6,8 2.6,30.4 Z M 2.6,8 L 2.8162107,6.1332035 2.6640625,7.078125 Z M 2.8162107,6.1332035 L 3.3297114,4.499756 3.1124997,5.05 Z M 3.3297114,4.499756 L 3.9322991,3.468408 3.600976,3.9667969 Z M 3.9322991,3.468408 L 4.799145,2.6444824 4.329687,3.021875 Z M 4.799145,2.6444824 L 5.978296,2.1662598 5.3466797,2.3535156 Z M 5.978296,2.1662598 L 7.421704,2.1673827 6.7,2.1 Z M 7.421704,2.1673827 L 8.600855,2.6537108 8.05332,2.3578124 Z M 8.600855,2.6537108 L 9.467701,3.4916015 9.0703125,3.0375 Z M 9.467701,3.4916015 L 10.2875,5.1000004 9.799024,3.998438 Z M 10.2875,5.1000004 L 10.735937,7.1625004 10.583789,6.201563 Z M 10.735937,7.1625004 L 10.8,30.4 10.8,8.1 Z M 10.8,30.4 L 2.8162107,6.1332035 2.6,8 Z M 2.8162107,6.1332035 L 3.9322991,3.468408 3.3297114,4.499756 Z M 3.9322991,3.468408 L 5.978296,2.1662598 4.799145,2.6444824 Z M 5.978296,2.1662598 L 8.600855,2.6537108 7.421704,2.1673827 Z M 8.600855,2.6537108 L 10.2875,5.1000004 9.467701,3.4916015 Z M 10.2875,5.1000004 L 10.8,30.4 10.735937,7.1625004 Z M 10.8,30.4 L 3.9322991,3.468408 2.8162107,6.1332035 Z M 3.9322991,3.468408 L 8.600855,2.6537108 5.978296,2.1662598 Z M 8.600855,2.6537108 L 10.8,30.4 10.2875,5.1000004 Z M 10.8,30.4 L 8.600855,2.6537108 3.9322991,3.468408 Z " style="fill:#31DA7D;fill-opacity:1;" />
	<path d="M 2.6,37.1 L 10.8,33.5 2.6,33.5 Z M 10.8,33.5 L 10.6625,37.662502 10.8,37.2 Z M 10.6625,37.662502 L 3.4,37.9 10,37.9 Z M 3.4,37.9 L 2.6,37.1 2.6999998,37.5 Z M 2.6,37.1 L 10.6625,37.662502 10.8,33.5 Z M 10.6625,37.662502 L 2.6,37.1 3.4,37.9 Z " style="fill:#31DA7D;fill-opacity:1;" />
	<path d="M 24.1,30.4 L 15.9,8 15.9,30.4 Z M 15.9,8 L 16.11621,6.1332035 15.964063,7.078125 Z M 16.11621,6.1332035 L 16.62971,4.499756 16.412498,5.05 Z M 16.62971,4.499756 L 17.232298,3.468408 16.900974,3.9667969 Z M 17.232298,3.468408 L 18.099144,2.6444824 17.629686,3.021875 Z M 18.099144,2.6444824 L 19.278296,2.1662598 18.646679,2.3535156 Z M 19.278296,2.1662598 L 20.721704,2.1673827 20,2.1 Z M 20.721704,2.1673827 L 21.900856,2.6537108 21.353321,2.3578124 Z M 21.900856,2.6537108 L 22.767702,3.4916015 22.370314,3.0375 Z M 22.767702,3.4916015 L 23.587502,5.1000004 23.099026,3.998438 Z M 23.587502,5.1000004 L 24.035938,7.1625004 23.88379,6.201563 Z M 24.035938,7.1625004 L 24.1,30.4 24.1,8.1 Z M 24.1,30.4 L 16.11621,6.1332035 15.9,8 Z M 16.11621,6.1332035 L 17.232298,3.468408 16.62971,4.499756 Z M 17.232298,3.468408 L 19.278296,2.1662598 18.099144,2.6444824 Z M 19.278296,2.1662598 L 21.900856,2.6537108 20.721704,2.1673827 Z M 21.900856,2.6537108 L 23.587502,5.1000004 22.767702,3.4916015 Z M 23.587502,5.1000004 L 24.1,30.4 24.035938,7.1625004 Z M 24.1,30.4 L 17.232298,3.468408 16.11621,6.1332035 Z M 17.232298,3.468408 L 21.900856,2.6537108 19.278296,2.1662598 Z M 21.900856,2.6537108 L 24.1,30.4 23.587502,5.1000004 Z M 24.1,30.4 L 21.900856,2.6537108 17.232298,3.468408 Z " style="fill:#31DA7D;fill-opacity:1;" />
	<path d="M 15.9,37.1 L 16,33.5 15.9,33.5 Z M 16,33.5 L 24.1,37.2 24.1,33.5 Z M 24.1,37.2 L 23.3,37.9 23.9625,37.662502 Z M 23.3,37.9 L 15.999999,37.5 16.7,37.9 Z M 15.999999,37.5 L 16,33.5 15.9,37.1 Z M 16,33.5 L 23.3,37.9 24.1,37.2 Z M 23.3,37.9 L 16,33.5 15.999999,37.5 Z " style="fill:#31DA7D;fill-opacity:1;" />
	<path d="M 36.6,30.4 L 28.4,8 28.4,30.4 Z M 28.4,8 L 28.61621,6.1332035 28.464062,7.078125 Z M 28.61621,6.1332035 L 29.12971,4.499756 28.912498,5.05 Z M 29.12971,4.499756 L 29.732298,3.468408 29.400974,3.9667969 Z M 29.732298,3.468408 L 30.599144,2.6444824 30.129686,3.021875 Z M 30.599144,2.6444824 L 31.778297,2.1662598 31.146679,2.3535156 Z M 31.778297,2.1662598 L 33.221703,2.1673827 32.5,2.1 Z M 33.221703,2.1673827 L 34.400856,2.6537108 33.85332,2.3578124 Z M 34.400856,2.6537108 L 35.2677,3.4916015 34.87031,3.0375 Z M 35.2677,3.4916015 L 36.087498,5.1000004 35.599022,3.998438 Z M 36.087498,5.1000004 L 36.535934,7.1625004 36.38379,6.201563 Z M 36.535934,7.1625004 L 36.6,30.4 36.6,8.1 Z M 36.6,30.4 L 28.61621,6.1332035 28.4,8 Z M 28.61621,6.1332035 L 29.732298,3.468408 29.12971,4.499756 Z M 29.732298,3.468408 L 31.778297,2.1662598 30.599144,2.6444824 Z M 31.778297,2.1662598 L 34.400856,2.6537108 33.221703,2.1673827 Z M 34.400856,2.6537108 L 36.087498,5.1000004 35.2677,3.4916015 Z M 36.087498,5.1000004 L 36.6,30.4 36.535934,7.1625004 Z M 36.6,30.4 L 29.732298,3.468408 28.61621,6.1332035 Z M 29.732298,3.468408 L 34.400856,2.6537108 31.778297,2.1662598 Z M 34.400856,2.6537108 L 36.6,30.4 36.087498,5.1000004 Z M 36.6,30.4 L 34.400856,2.6537108 29.732298,3.468408 Z " style="fill:#31DA7D;fill-opacity:1;" />
	<path d="M 28.5,37.1 L 28.6,33.5 28.5,33.5 Z M 28.6,33.5 L 36.7,37.2 36.7,33.5 Z M 36.7,37.2 L 35.9,37.9 36.5625,37.662502 Z M 35.9,37.9 L 28.6,37.5 29.3,37.9 Z M 28.6,37.5 L 28.6,33.5 28.5,37.1 Z M 28.6,33.5 L 35.9,37.9 36.7,37.2 Z M 35.9,37.9 L 28.6,33.5 28.6,37.5 Z " style="fill:#31DA7D;fill-opacity:1;" />
</svg>
