<svg x="0.79999924" y="7.7" viewBox="0 0 39.1 32.6" xmlns="http://www.w3.org/2000/svg">
	<path d="M 33.9,7.7 L 38.35,8.075 37.6,7.7 Z M 38.35,8.075 L 39.1,9.2 38.865623,8.54375 Z M 39.1,9.2 L 32.7375,31.599998 33.2,30.9 Z M 32.7375,31.599998 L 31.6,32.3 32.229687,32.08125 Z M 31.6,32.3 L 28.260937,32.21406 28,32.3 Z M 30.3,29.5 L 35.8875,9.55 35.7,10.2 Z M 34.9125,8.1125 L 38.35,8.075 33.9,7.7 Z M 38.35,8.075 L 32.7375,31.599998 39.1,9.2 Z M 32.7375,31.599998 L 28.260937,32.21406 31.6,32.3 Z M 35.7,8.6 L 38.35,8.075 34.9125,8.1125 Z M 32.7375,31.599998 L 28.8875,31.8375 28.260937,32.21406 Z M 35.91094,9.01875 L 38.35,8.075 35.7,8.6 Z M 32.7375,31.599998 L 29.264648,31.48457 28.8875,31.8375 Z M 35.8875,9.55 L 38.35,8.075 35.91094,9.01875 Z M 32.7375,31.599998 L 29.645313,30.992188 29.264648,31.48457 Z M 30.3,29.5 L 38.35,8.075 35.8875,9.55 Z M 32.7375,31.599998 L 30.000195,30.338085 29.645313,30.992188 Z M 30.000195,30.338085 L 38.35,8.075 30.3,29.5 Z M 38.35,8.075 L 30.000195,30.338085 32.7375,31.599998 Z " style="fill:#FFFFFF;fill-opacity:1;" />
	<path d="M 9.6,10.5 L 4.0125,30.449999 4.2,29.8 Z M 4.9874997,31.8875 L 2.3,32.3 6,32.3 Z M 2.3,32.3 L 1.034375,31.45625 1.55,31.925 Z M 1.034375,31.45625 L 6.7,9.1 0.8,30.8 Z M 6.7,9.1 L 7.670313,7.9187493 7.1625004,8.4 Z M 7.670313,7.9187493 L 11.9,7.7 8.3,7.7 Z M 4.2,31.4 L 2.3,32.3 4.9874997,31.8875 Z M 2.3,32.3 L 6.7,9.1 1.034375,31.45625 Z M 6.7,9.1 L 11.9,7.7 7.670313,7.9187493 Z M 3.9890623,30.98125 L 2.3,32.3 4.2,31.4 Z M 6.7,9.1 L 11.639062,7.7859373 11.9,7.7 Z M 4.0125,30.449999 L 2.3,32.3 3.9890623,30.98125 Z M 6.7,9.1 L 11.012501,8.1625 11.639062,7.7859373 Z M 9.6,10.5 L 2.3,32.3 4.0125,30.449999 Z M 6.7,9.1 L 10.635353,8.51543 11.012501,8.1625 Z M 9.6,10.5 L 6.7,9.1 2.3,32.3 Z M 6.7,9.1 L 10.254688,9.0078125 10.635353,8.51543 Z M 9.899805,9.661915 L 6.7,9.1 9.6,10.5 Z M 6.7,9.1 L 9.899805,9.661915 10.254688,9.0078125 Z " style="fill:#FFFFFF;fill-opacity:1;" />
	<path d="M 28.8,7.8 L 30.276562,8.1796875 29.6875,7.8875 Z M 30.276562,8.1796875 L 25.5,31.3 30.5,8.8 Z M 25.5,31.3 L 24.951561,32.01719 25.2875,31.6875 Z M 24.951561,32.01719 L 23.548634,32.38613 24.4,32.3 Z M 23.548634,32.38613 L 17.1625,32.4125 21.864063,32.42656 Z M 17.1625,32.4125 L 9.987501,31.75 10.6,32.3 Z M 9.987501,31.75 L 9.6,30.3 9.629688,31.11875 Z M 9.6,30.3 L 13.7,21.9 13.4,21.4 Z M 13.7,21.9 L 16.5,25.3 17.5,21.9 Z M 20.6,25.2 L 25.1,22 21.5,22 Z M 26.1,18.2 L 22.95,16.612501 22.5,18.2 Z M 19.4,14.6 L 14.5,18.1 18.4,18.1 Z M 13.525,20.820312 L 9.6,30.3 13.4,21.4 Z M 9.6,30.3 L 14.8375,8.475 14.5,9.1 Z M 14.8375,8.475 L 16,7.7 15.301562,8.003125 Z M 16,7.7 L 28.8,7.8 28.8,7.7 Z M 28.8,7.8 L 25.5,31.3 30.276562,8.1796875 Z M 25.5,31.3 L 23.548634,32.38613 24.951561,32.01719 Z M 23.548634,32.38613 L 9.987501,31.75 17.1625,32.4125 Z M 9.987501,31.75 L 13.7,21.9 9.6,30.3 Z M 13.7,21.9 L 16.8,25.8 16.5,25.3 Z M 20.2,25.8 L 25.1,22 20.6,25.2 Z M 26.337502,18.2625 L 22.95,16.612501 26.1,18.2 Z M 19.8,14.3 L 14.5,18.1 19.4,14.6 Z M 13.799999,19.8375 L 9.6,30.3 13.525,20.820312 Z M 9.6,30.3 L 16,7.7 14.8375,8.475 Z M 25.5,31.3 L 9.987501,31.75 23.548634,32.38613 Z M 9.987501,31.75 L 16.8,25.8 13.7,21.9 Z M 20.2,25.8 L 25.7125,21.837502 25.1,22 Z M 26.337502,18.2625 L 23.4,14.8 22.95,16.612501 Z M 14.2,18.5 L 9.6,30.3 13.799999,19.8375 Z M 25.5,31.3 L 16.8,25.8 9.987501,31.75 Z M 26.337502,18.2625 L 23.1,14.3 23.4,14.8 Z M 14.2,18.5 L 16,7.7 9.6,30.3 Z M 25.5,31.3 L 20.2,25.8 16.8,25.8 Z M 14.5,18.1 L 16,7.7 14.2,18.5 Z M 25.5,31.3 L 25.7125,21.837502 20.2,25.8 Z M 19.8,14.3 L 16,7.7 14.5,18.1 Z M 25.5,31.3 L 25.8,21.6 25.7125,21.837502 Z M 23.1,14.3 L 16,7.7 19.8,14.3 Z M 25.5,31.3 L 26.5,18.7 25.8,21.6 Z M 23.1,14.3 L 28.8,7.8 16,7.7 Z M 28.8,7.8 L 26.5,18.7 25.5,31.3 Z M 26.337502,18.2625 L 28.8,7.8 23.1,14.3 Z M 28.8,7.8 L 26.337502,18.2625 26.5,18.7 Z " style="fill:#FFFFFF;fill-opacity:1;" />
</svg>
