<svg x="0.7" y="7.2" viewBox="0 0 39.6 33.1" xmlns="http://www.w3.org/2000/svg">
	<path d="M 4,10.4 L 4.4,7.2 4,7.6 Z M 6,7.2 L 7.5,8.4 6.3,7.2 Z M 7.5,8.4 L 26.3,8.8 25.9,8.4 Z M 29.1,12.4 L 29.5,8.4 29.1,8.8 Z M 29.5,8.4 L 33.8,8.5 33.5,8.4 Z M 33.8,8.5 L 37.8,12.8 37.8,12.5 Z M 37.8,12.8 L 37.4,15.5 37.8,14.8 Z M 36.3,16.2 L 39.275,27.5375 39.3,26.6 Z M 39.275,27.5375 L 38.64922,28.868164 38.9625,28.414062 Z M 38.64922,28.868164 L 34.6,32.1 38.2,29.3 Z M 34.6,32.1 L 33.625,32.5375 34.337498,32.248436 Z M 33.625,32.5375 L 32.574997,32.73281 33.135155,32.661522 Z M 32.574997,32.73281 L 31.3,32.6 31.958591,32.72207 Z M 31.3,32.6 L 23.2,29.949999 23.7,30.3 Z M 23.2,29.949999 L 22.1,28.7 22.6875,29.45625 Z M 20.9,27 L 17.6125,26.8625 20.001562,27.010937 Z M 17.6125,26.8625 L 10.2,25 14.192187,26.282812 Z M 10.2,25 L 25,24.4 8.354492,24.00879 Z M 25,24.4 L 6.9109373,22.882812 8.354492,24.00879 Z M 6.9109373,22.882812 L 5.0375,20.512499 5.821289,21.693554 Z M 5.0375,20.512499 L 4.1953125,18.460938 4.5115232,19.411133 Z M 4.1953125,18.460938 L 4,17.3 4.04082,17.733398 Z M 4,17.3 L 13.128834,18.273756 13.1,17.7 Z M 13.128834,17.126245 L 4,17.3 13.1,17.7 Z M 4,13.8 L 0.7,13.4 1.1,13.8 Z M 0.7,13.4 L 1,10.3 0.7,10.8 Z M 4,10.4 L 6,7.2 4.4,7.2 Z M 7.5,8.4 L 26.3,12.4 26.3,8.8 Z M 29.1,12.4 L 33.8,8.5 29.5,8.4 Z M 33.8,8.5 L 37.4,15.5 37.8,12.8 Z M 36.3,16.2 L 38.64922,28.868164 39.275,27.5375 Z M 38.64922,28.868164 L 33.625,32.5375 34.6,32.1 Z M 33.625,32.5375 L 31.3,32.6 32.574997,32.73281 Z M 31.3,32.6 L 22.1,28.7 23.2,29.949999 Z M 20.9,27 L 10.2,25 17.6125,26.8625 Z M 10.2,25 L 25,25 25,24.4 Z M 6.9109373,22.882812 L 4.1953125,18.460938 5.0375,20.512499 Z M 4.1953125,18.460938 L 13.128834,18.273756 4,17.3 Z M 13.213477,16.569336 L 4,17.3 13.128834,17.126245 Z M 0.7,13.4 L 1,10.4 1,10.3 Z M 4,10.4 L 7.5,8.4 6,7.2 Z M 29.1,12.4 L 37.4,15.5 33.8,8.5 Z M 38.64922,28.868164 L 31.3,32.6 33.625,32.5375 Z M 31.3,32.6 L 20.9,27 22.1,28.7 Z M 20.9,27 L 25,25 10.2,25 Z M 6.9109373,22.882812 L 13.128834,18.273756 4.1953125,18.460938 Z M 13.351148,16.032057 L 4,17.3 13.213477,16.569336 Z M 4,13.8 L 1,10.4 0.7,13.4 Z M 4,10.4 L 26.3,12.4 7.5,8.4 Z M 26.3,12.4 L 37.4,15.5 29.1,12.4 Z M 31.3,32.6 L 25,25 20.9,27 Z M 6.9109373,22.882812 L 13.213477,18.830666 13.128834,18.273756 Z M 13.5390625,15.517188 L 4,17.3 13.351148,16.032057 Z M 4,13.8 L 4,10.4 1,10.4 Z M 26.3,12.4 L 36.3,16.2 37.4,15.5 Z M 31.3,32.6 L 27,27.3 25,25 Z M 6.9109373,22.882812 L 13.351148,19.367945 13.213477,18.830666 Z M 13.774439,15.027515 L 4,17.3 13.5390625,15.517188 Z M 26.3,12.4 L 38.64922,28.868164 36.3,16.2 Z M 31.3,32.6 L 27.2,27.4 27,27.3 Z M 6.9109373,22.882812 L 13.5390625,19.882812 13.351148,19.367945 Z M 14.054493,14.565821 L 4,17.3 13.774439,15.027515 Z M 31.3,32.6 L 32.3,28.9 27.2,27.4 Z M 6.9109373,22.882812 L 13.774439,20.372484 13.5390625,19.882812 Z M 14.376442,14.134889 L 4,17.3 14.054493,14.565821 Z M 31.3,32.6 L 32.7,28.9 32.3,28.9 Z M 6.9109373,22.882812 L 14.054493,20.834179 13.774439,20.372484 Z M 14.737501,13.737501 L 4,17.3 14.376442,14.134889 Z M 38.64922,28.868164 L 32.7,28.9 31.3,32.6 Z M 6.9109373,22.882812 L 14.376442,21.265112 14.054493,20.834179 Z M 15.13489,13.376442 L 4,17.3 14.737501,13.737501 Z M 38.64922,28.868164 L 35.3,27 32.7,28.9 Z M 6.9109373,22.882812 L 14.737501,21.662498 14.376442,21.265112 Z M 15.565823,13.054493 L 4,17.3 15.13489,13.376442 Z M 38.64922,28.868164 L 35.3,26.4 35.3,27 Z M 6.9109373,22.882812 L 15.13489,22.023558 14.737501,21.662498 Z M 16.027517,12.774439 L 4,17.3 15.565823,13.054493 Z M 26.3,12.4 L 35.3,26.4 38.64922,28.868164 Z M 6.9109373,22.882812 L 15.565823,22.345507 15.13489,22.023558 Z M 16.517189,12.5390625 L 4,17.3 16.027517,12.774439 Z M 26.3,12.4 L 30.9,20.7 35.3,26.4 Z M 6.9109373,22.882812 L 16.027517,22.62556 15.565823,22.345507 Z M 16.517189,12.5390625 L 4,13.8 4,17.3 Z M 26.3,12.4 L 30.3,20.7 30.9,20.7 Z M 6.9109373,22.882812 L 16.517189,22.860937 16.027517,22.62556 Z M 17.032057,12.351148 L 4,13.8 16.517189,12.5390625 Z M 26.3,12.4 L 25,24.4 30.3,20.7 Z M 6.9109373,22.882812 L 17.032057,23.048851 16.517189,22.860937 Z M 17.569336,12.213477 L 4,13.8 17.032057,12.351148 Z M 6.9109373,22.882812 L 17.569336,23.186523 17.032057,23.048851 Z M 18.126245,12.128834 L 4,13.8 17.569336,12.213477 Z M 25,24.4 L 17.569336,23.186523 6.9109373,22.882812 Z M 18.126245,12.128834 L 4,10.4 4,13.8 Z M 25,24.4 L 18.126245,23.271166 17.569336,23.186523 Z M 18.7,12.1 L 4,10.4 18.126245,12.128834 Z M 25,24.4 L 18.7,23.3 18.126245,23.271166 Z M 19.273756,12.128834 L 4,10.4 18.7,12.1 Z M 25,24.4 L 19.273756,23.271166 18.7,23.3 Z M 19.273756,12.128834 L 26.3,12.4 4,10.4 Z M 25,24.4 L 19.830666,23.186523 19.273756,23.271166 Z M 19.830666,12.213477 L 26.3,12.4 19.273756,12.128834 Z M 25,24.4 L 20.367945,23.048851 19.830666,23.186523 Z M 20.367945,12.351148 L 26.3,12.4 19.830666,12.213477 Z M 25,24.4 L 20.882812,22.860937 20.367945,23.048851 Z M 20.882812,12.5390625 L 26.3,12.4 20.367945,12.351148 Z M 25,24.4 L 21.372484,22.62556 20.882812,22.860937 Z M 21.372484,12.774439 L 26.3,12.4 20.882812,12.5390625 Z M 25,24.4 L 21.834179,22.345507 21.372484,22.62556 Z M 21.834179,13.054493 L 26.3,12.4 21.372484,12.774439 Z M 25,24.4 L 22.265112,22.023558 21.834179,22.345507 Z M 22.265112,13.376442 L 26.3,12.4 21.834179,13.054493 Z M 25,24.4 L 22.662498,21.662498 22.265112,22.023558 Z M 22.662498,13.737501 L 26.3,12.4 22.265112,13.376442 Z M 25,24.4 L 23.023558,21.265112 22.662498,21.662498 Z M 23.023558,14.134889 L 26.3,12.4 22.662498,13.737501 Z M 25,24.4 L 23.345507,20.834179 23.023558,21.265112 Z M 23.345507,14.565821 L 26.3,12.4 23.023558,14.134889 Z M 25,24.4 L 23.62556,20.372484 23.345507,20.834179 Z M 23.62556,15.027515 L 26.3,12.4 23.345507,14.565821 Z M 25,24.4 L 23.860937,19.882812 23.62556,20.372484 Z M 23.860937,15.517188 L 26.3,12.4 23.62556,15.027515 Z M 25,24.4 L 24.048851,19.367945 23.860937,19.882812 Z M 24.048851,16.032057 L 26.3,12.4 23.860937,15.517188 Z M 26.3,12.4 L 24.048851,19.367945 25,24.4 Z M 24.186523,16.569336 L 26.3,12.4 24.048851,16.032057 Z M 26.3,12.4 L 24.186523,18.830666 24.048851,19.367945 Z M 24.271166,17.126245 L 26.3,12.4 24.186523,16.569336 Z M 26.3,12.4 L 24.271166,18.273756 24.186523,18.830666 Z M 24.3,17.7 L 26.3,12.4 24.271166,17.126245 Z M 26.3,12.4 L 24.3,17.7 24.271166,18.273756 Z " style="fill:#DA3232;fill-opacity:1;" />
	<path d="M 19.405003,21.028841 L 17.994999,21.028841 18.7,21.1 Z M 17.994999,21.028841 L 16.743687,20.501915 17.338188,20.824772 Z M 16.743687,20.501915 L 15.798087,19.556316 16.225613,20.07439 Z M 15.798087,19.556316 L 15.271162,18.305004 15.47523,18.961815 Z M 15.271162,18.305004 L 15.271162,16.895 15.200001,17.6 Z M 15.271162,16.895 L 15.798087,15.643686 15.47523,16.23819 Z M 15.798087,15.643686 L 16.743687,14.698087 16.225613,15.125612 Z M 16.743687,14.698087 L 17.994999,14.171162 17.338188,14.37523 Z M 17.994999,14.171162 L 19.405003,14.171162 18.7,14.1 Z M 19.405003,14.171162 L 20.656315,14.698087 20.061813,14.37523 Z M 20.656315,14.698087 L 21.601913,15.643686 21.174389,15.125612 Z M 21.601913,15.643686 L 22.12884,16.895 21.92477,16.23819 Z M 22.12884,16.895 L 22.12884,18.305004 22.2,17.6 Z M 22.12884,18.305004 L 21.601913,19.556316 21.92477,18.961815 Z M 21.601913,19.556316 L 20.656315,20.501915 21.174389,20.07439 Z M 20.656315,20.501915 L 19.405003,21.028841 20.061813,20.824772 Z M 19.405003,21.028841 L 16.743687,20.501915 17.994999,21.028841 Z M 16.743687,20.501915 L 15.271162,18.305004 15.798087,19.556316 Z M 15.271162,18.305004 L 15.798087,15.643686 15.271162,16.895 Z M 15.798087,15.643686 L 17.994999,14.171162 16.743687,14.698087 Z M 17.994999,14.171162 L 20.656315,14.698087 19.405003,14.171162 Z M 20.656315,14.698087 L 22.12884,16.895 21.601913,15.643686 Z M 22.12884,16.895 L 21.601913,19.556316 22.12884,18.305004 Z M 21.601913,19.556316 L 19.405003,21.028841 20.656315,20.501915 Z M 19.405003,21.028841 L 15.271162,18.305004 16.743687,20.501915 Z M 15.271162,18.305004 L 17.994999,14.171162 15.798087,15.643686 Z M 17.994999,14.171162 L 22.12884,16.895 20.656315,14.698087 Z M 22.12884,16.895 L 19.405003,21.028841 21.601913,19.556316 Z M 19.405003,21.028841 L 17.994999,14.171162 15.271162,18.305004 Z M 17.994999,14.171162 L 19.405003,21.028841 22.12884,16.895 Z " style="fill:#DA3232;fill-opacity:1;" />
</svg>
