<svg x="6.199997" y="8.099998" viewBox="0 0 191.8 236.30002" xmlns="http://www.w3.org/2000/svg">
	<path d="M 189.4,116 L 191.60469,124.439064 191.4,123.6 Z M 191.60469,124.439064 L 191.41406,126.11719 191.6125,125.287506 Z M 191.41406,126.11719 L 183.3,140.9 191,126.9 Z M 183.3,140.9 L 182.2,142 182.79688,141.51562 Z M 182.2,142 L 180.8,142.5 181.52814,142.33438 Z M 142.7,144.4 L 141.31406,144.34216 141.99472,144.43964 Z M 141.31406,144.34216 L 140.0875,143.78749 140.67323,144.12048 Z M 140.0875,143.78749 L 139.1422,142.83907 139.57207,143.35605 Z M 139.1422,142.83907 L 138.6,141.6 138.81311,142.24942 Z M 138.6,141.6 L 135.89023,130.18593 136,130.9 Z M 135.89023,130.18593 L 136.10196,128.80469 135.92813,129.48125 Z M 136.10196,128.80469 L 136.81055,127.61094 136.4,128.175 Z M 136.81055,127.61094 L 137.92227,126.754684 137.32187,127.13125 Z M 137.92227,126.754684 L 185,113.7 138.6,126.5 Z M 185,113.7 L 186.34843,113.59531 185.67715,113.58144 Z M 186.34843,113.59531 L 187.61249,113.987495 186.99863,113.7334 Z M 187.61249,113.987495 L 188.6703,114.810936 188.1748,114.34941 Z M 188.6703,114.810936 L 189.4,116 189.08377,115.36387 Z M 189.4,116 L 191.41406,126.11719 191.60469,124.439064 Z M 191.41406,126.11719 L 182.2,142 183.3,140.9 Z M 182.2,142 L 142.7,144.4 180.8,142.5 Z M 142.7,144.4 L 140.0875,143.78749 141.31406,144.34216 Z M 140.0875,143.78749 L 138.6,141.6 139.1422,142.83907 Z M 138.6,141.6 L 136.10196,128.80469 135.89023,130.18593 Z M 136.10196,128.80469 L 137.92227,126.754684 136.81055,127.61094 Z M 137.92227,126.754684 L 186.34843,113.59531 185,113.7 Z M 186.34843,113.59531 L 188.6703,114.810936 187.61249,113.987495 Z M 188.6703,114.810936 L 191.41406,126.11719 189.4,116 Z M 191.41406,126.11719 L 142.7,144.4 182.2,142 Z M 142.7,144.4 L 138.6,141.6 140.0875,143.78749 Z M 138.6,141.6 L 137.92227,126.754684 136.10196,128.80469 Z M 137.92227,126.754684 L 188.6703,114.810936 186.34843,113.59531 Z M 188.6703,114.810936 L 142.7,144.4 191.41406,126.11719 Z M 142.7,144.4 L 137.92227,126.754684 138.6,141.6 Z M 137.92227,126.754684 L 142.7,144.4 188.6703,114.810936 Z " style="fill:#FFFFFF;fill-opacity:1;" />
	<path d="M 173.2,77.8 L 173.76575,77.58017 173.2,77.7 Z M 173.76575,77.58017 L 175.1158,77.811615 174.40723,77.62265 Z M 175.1158,77.811615 L 177.5576,79.09921 175.88281,78.13125 Z M 177.5576,79.09921 L 186.5,86.4 179.36249,80.4 Z M 186.5,86.4 L 187.36093,87.328125 186.95917,86.83946 Z M 187.36093,87.328125 L 187.98749,88.424995 187.7041,87.85898 Z M 187.98749,88.424995 L 188.37032,89.63438 188.20996,89.019135 Z M 188.37032,89.63438 L 188.5,90.9 188.46738,90.26368 Z M 188.5,90.9 L 187.09688,105.07657 187.6,104.5 Z M 187.09688,105.07657 L 185.82812,106.004684 186.5,105.5875 Z M 185.82812,106.004684 L 139.2,120.8 185.1,106.3 Z M 139.2,120.8 L 136.93437,121.2 138.06836,121.08672 Z M 136.93437,121.2 L 134.725,120.925 135.81445,121.14453 Z M 134.725,120.925 L 132.70312,120.0125 133.68243,120.5461 Z M 132.70312,120.0125 L 131,118.5 131.80353,119.3289 Z M 131,118.5 L 125.52217,111.72563 125.8,112.2 Z M 125.52217,111.72563 L 125.11875,109.515625 125.32109,111.10508 Z M 125.11875,109.515625 L 126.3,99.7 125.3,105.575 Z M 126.3,99.7 L 127.21192,98.45137 126.592705,99.10798 Z M 127.21192,98.45137 L 138.0875,92.6875 129.45157,96.910934 Z M 138.0875,92.6875 L 173.76575,77.58017 173.2,77.8 Z M 173.76575,77.58017 L 177.5576,79.09921 175.1158,77.811615 Z M 177.5576,79.09921 L 187.36093,87.328125 186.5,86.4 Z M 187.36093,87.328125 L 188.37032,89.63438 187.98749,88.424995 Z M 188.37032,89.63438 L 187.09688,105.07657 188.5,90.9 Z M 187.09688,105.07657 L 139.2,120.8 185.82812,106.004684 Z M 139.2,120.8 L 134.725,120.925 136.93437,121.2 Z M 134.725,120.925 L 131,118.5 132.70312,120.0125 Z M 131,118.5 L 125.11875,109.515625 125.52217,111.72563 Z M 125.11875,109.515625 L 127.21192,98.45137 126.3,99.7 Z M 127.21192,98.45137 L 173.76575,77.58017 138.0875,92.6875 Z M 173.76575,77.58017 L 187.36093,87.328125 177.5576,79.09921 Z M 187.36093,87.328125 L 187.09688,105.07657 188.37032,89.63438 Z M 187.09688,105.07657 L 134.725,120.925 139.2,120.8 Z M 134.725,120.925 L 125.11875,109.515625 131,118.5 Z M 125.11875,109.515625 L 173.76575,77.58017 127.21192,98.45137 Z M 173.76575,77.58017 L 187.09688,105.07657 187.36093,87.328125 Z M 187.09688,105.07657 L 125.11875,109.515625 134.725,120.925 Z M 125.11875,109.515625 L 187.09688,105.07657 173.76575,77.58017 Z " style="fill:#FFFFFF;fill-opacity:1;" />
	<path d="M 160.19922,35.850197 L 136.4,49.9 159.7,36.5 Z M 136.4,49.9 L 141.8,9.6 120.1,21.1 Z M 141.8,9.6 L 143.16562,9.386329 142.41602,9.408643 Z M 143.16562,9.386329 L 145,9.784375 144.03241,9.516943 Z M 145,9.784375 L 149.55,11.900001 147.17188,10.6652355 Z M 149.55,11.900001 L 159.0754,18.314648 158.5,17.8 Z M 159.0754,18.314648 L 160.05743,19.489258 159.59688,18.879688 Z M 160.05743,19.489258 L 160.76758,20.818554 160.45,20.1375 Z M 160.76758,20.818554 L 161.1496,22.255665 161.00313,21.526562 Z M 161.1496,22.255665 L 161.05,31.137497 161.2,23 Z M 161.05,31.137497 L 160.40399,35.31414 160.58124,34.657814 Z M 160.40399,35.31414 L 136.4,49.9 160.19922,35.850197 Z M 136.4,49.9 L 143.16562,9.386329 141.8,9.6 Z M 143.16562,9.386329 L 149.55,11.900001 145,9.784375 Z M 149.55,11.900001 L 160.05743,19.489258 159.0754,18.314648 Z M 160.05743,19.489258 L 161.1496,22.255665 160.76758,20.818554 Z M 161.1496,22.255665 L 160.40399,35.31414 161.05,31.137497 Z M 160.40399,35.31414 L 143.16562,9.386329 136.4,49.9 Z M 143.16562,9.386329 L 160.05743,19.489258 149.55,11.900001 Z M 160.05743,19.489258 L 160.40399,35.31414 161.1496,22.255665 Z M 160.40399,35.31414 L 160.05743,19.489258 143.16562,9.386329 Z " style="fill:#FFFFFF;fill-opacity:1;" />
	<path d="M 150.6,70.6 L 162.1,42.1 139.8,54.8 Z M 162.1,42.1 L 164.27032,42.365623 162.94318,42.030075 Z M 164.27032,42.365623 L 175.9,48.3 167.9125,43.925 Z M 175.9,48.3 L 177.20157,49.29844 176.58301,48.757614 Z M 177.20157,49.29844 L 178.21251,50.5875 177.74747,49.91192 Z M 178.21251,50.5875 L 178.86719,52.082813 178.58849,51.31465 Z M 178.86719,52.082813 L 179.1,53.7 179.04044,52.881447 Z M 179.1,53.7 L 179.15625,64.00781 179.22499,60.9375 Z M 179.15625,64.00781 L 178.9,65.7 179.05624,65.07363 Z M 178.9,65.7 L 176.42969,70.33594 176.8,69.7 Z M 176.42969,70.33594 L 175.35156,71.34531 175.9375,70.8875 Z M 175.35156,71.34531 L 139.7,88.2 174.7,71.7 Z M 150.95645,71.225784 L 162.1,42.1 150.6,70.6 Z M 162.1,42.1 L 175.9,48.3 164.27032,42.365623 Z M 175.9,48.3 L 178.21251,50.5875 177.20157,49.29844 Z M 178.21251,50.5875 L 179.1,53.7 178.86719,52.082813 Z M 179.1,53.7 L 178.9,65.7 179.15625,64.00781 Z M 178.9,65.7 L 175.35156,71.34531 176.42969,70.33594 Z M 175.35156,71.34531 L 150.4,76 139.7,88.2 Z M 151.20157,71.89375 L 162.1,42.1 150.95645,71.225784 Z M 162.1,42.1 L 178.21251,50.5875 175.9,48.3 Z M 178.21251,50.5875 L 178.9,65.7 179.1,53.7 Z M 178.9,65.7 L 150.4,76 175.35156,71.34531 Z M 151.33652,72.58984 L 162.1,42.1 151.20157,71.89375 Z M 162.1,42.1 L 178.9,65.7 178.21251,50.5875 Z M 178.9,65.7 L 150.79823,75.374214 150.4,76 Z M 151.36249,73.3 L 162.1,42.1 151.33652,72.58984 Z M 178.9,65.7 L 151.0922,74.70625 150.79823,75.374214 Z M 151.28067,74.01016 L 162.1,42.1 151.36249,73.3 Z M 162.1,42.1 L 151.0922,74.70625 178.9,65.7 Z M 151.0922,74.70625 L 162.1,42.1 151.28067,74.01016 Z " style="fill:#FFFFFF;fill-opacity:1;" />
	<path d="M 135.3,150.9 L 136.05112,150.92285 135.4,150.6 Z M 153.25,151.05 L 167.63748,154.00313 169.9,150 Z M 167.63748,154.00313 L 155.29062,168.95508 160.65,163.42499 Z M 155.29062,168.95508 L 140.65314,179.22772 148.63751,174.38437 Z M 140.65314,179.22772 L 126.25572,184.96638 131.3,183 Z M 93.3,212.76251 L 67.65313,233.55624 75.4,236.3 Z M 67.65313,233.55624 L 37.675392,215.75313 48.975002,223.875 Z M 37.675392,215.75313 L 15.432422,191.5875 26.209375,205.08124 Z M 15.432422,191.5875 L 25.775002,161.32501 6.2,175 Z M 47.002342,144.4078 L 70,153.6 51.2,140 Z M 70,153.6 L 50.4,94.6 50.6,123.4 Z M 50.4,94.6 L 73.15,40.875 51,53.9 Z M 73.15,40.875 L 104.40224,24.699724 103.4,25 Z M 104.40224,24.699724 L 106.34497,24.419537 105.38391,24.507957 Z M 106.34497,24.419537 L 108.20501,24.532074 107.285355,24.429296 Z M 108.20501,24.532074 L 110.839066,25.346874 109.10388,24.722706 Z M 110.839066,25.346874 L 114.05762,27.422264 112.490456,26.260498 Z M 114.05762,27.422264 L 121.66719,37.290623 116.9375,30.324999 Z M 125,43.6 L 142.8,71.515625 142.5,70.9 Z M 142.8,71.515625 L 142.95001,72.78437 142.95,72.149994 Z M 142.95001,72.78437 L 141.28595,76.762505 142.8,73.4 Z M 141.28595,76.762505 L 137.28342,82.80234 138.7875,80.875 Z M 137.28342,82.80234 L 134.83719,85.07079 135.67032,84.424995 Z M 134.83719,85.07079 L 133.14632,85.92881 133.99396,85.5789 Z M 133.14632,85.92881 L 127.44844,86.0875 132.3,86.1 Z M 127.44844,86.0875 L 116.620316,83.962494 121.9125,85.4 Z M 116.620316,83.962494 L 113.36945,82.34707 114.35567,82.939064 Z M 113.36945,82.34707 L 111.68357,80.93342 112.5,81.7 Z M 111.68357,80.93342 L 109.185936,77.58281 110.85293,79.96895 Z M 109.185936,77.58281 L 102.9,64.8 106.0875,71.9375 Z M 102.9,64.8 L 102.42539,66.53496 102.71562,65.64532 Z M 102.42539,66.53496 L 101.24961,68.69159 101.950005,67.587494 Z M 101.24961,68.69159 L 100.28438,69.73593 100.80259,69.228195 Z M 100.28438,69.73593 L 99.01446,70.60918 99.689995,70.2009 Z M 99.01446,70.60918 L 97.4,71.2 98.25279,70.94685 Z M 91.2,73 L 102.75938,84.17969 97.899994,78.7375 Z M 102.75938,84.17969 L 105.14165,88.441284 104.541016,87.03965 Z M 105.14165,88.441284 L 104.3,141.9 105.5,89.8 Z M 104.3,141.9 L 110.85485,114.528496 110.6,115.4 Z M 110.85485,114.528496 L 111.583626,113.31993 111.18454,113.8385 Z M 111.583626,113.31993 L 112.568245,112.7567 112.04668,112.96269 Z M 112.568245,112.7567 L 113.76519,112.7581 113.1429,112.691864 Z M 113.76519,112.7581 L 115.13095,113.24341 114.42969,112.94531 Z M 115.13095,113.24341 L 117.40097,114.70215 115.86355,113.6423 Z M 117.40097,114.70215 L 126.36406,124.160934 120.612495,117.5875 Z M 126.36406,124.160934 L 131.5375,138.45 128.9,127.5 Z M 135.3,150.9 L 137.3418,151.14844 136.05112,150.92285 Z M 141.46562,151.35 L 167.63748,154.00313 153.25,151.05 Z M 167.63748,154.00313 L 140.65314,179.22772 155.29062,168.95508 Z M 111.259384,194.8297 L 67.65313,233.55624 93.3,212.76251 Z M 67.65313,233.55624 L 15.432422,191.5875 37.675392,215.75313 Z M 15.432422,191.5875 L 40.850002,149.74374 25.775002,161.32501 Z M 40.850002,149.74374 L 70,153.6 47.002342,144.4078 Z M 70,153.6 L 73.15,40.875 50.4,94.6 Z M 73.15,40.875 L 106.34497,24.419537 104.40224,24.699724 Z M 106.34497,24.419537 L 110.839066,25.346874 108.20501,24.532074 Z M 110.839066,25.346874 L 121.66719,37.290623 114.05762,27.422264 Z M 125,43.6 L 142.95001,72.78437 142.8,71.515625 Z M 142.95001,72.78437 L 137.28342,82.80234 141.28595,76.762505 Z M 137.28342,82.80234 L 133.14632,85.92881 134.83719,85.07079 Z M 133.14632,85.92881 L 116.620316,83.962494 127.44844,86.0875 Z M 116.620316,83.962494 L 111.68357,80.93342 113.36945,82.34707 Z M 111.68357,80.93342 L 102.9,64.8 109.185936,77.58281 Z M 102.9,64.8 L 101.24961,68.69159 102.42539,66.53496 Z M 101.24961,68.69159 L 99.01446,70.60918 100.28438,69.73593 Z M 99.01446,70.60918 L 92.575,72.475 97.4,71.2 Z M 91.2,73 L 105.14165,88.441284 102.75938,84.17969 Z M 104.3,141.9 L 111.583626,113.31993 110.85485,114.528496 Z M 111.583626,113.31993 L 113.76519,112.7581 112.568245,112.7567 Z M 113.76519,112.7581 L 117.40097,114.70215 115.13095,113.24341 Z M 117.40097,114.70215 L 131.5375,138.45 126.36406,124.160934 Z M 137.3418,151.14844 L 167.63748,154.00313 141.46562,151.35 Z M 167.63748,154.00313 L 126.25572,184.96638 140.65314,179.22772 Z M 111.259384,194.8297 L 15.432422,191.5875 67.65313,233.55624 Z M 15.432422,191.5875 L 70,153.6 40.850002,149.74374 Z M 73.15,40.875 L 110.839066,25.346874 106.34497,24.419537 Z M 110.839066,25.346874 L 125,43.6 121.66719,37.290623 Z M 125,43.6 L 137.28342,82.80234 142.95001,72.78437 Z M 137.28342,82.80234 L 116.620316,83.962494 133.14632,85.92881 Z M 116.620316,83.962494 L 102.9,64.8 111.68357,80.93342 Z M 102.9,64.8 L 99.01446,70.60918 101.24961,68.69159 Z M 91.2,73 L 104.3,141.9 105.14165,88.441284 Z M 104.3,141.9 L 113.76519,112.7581 111.583626,113.31993 Z M 113.76519,112.7581 L 131.5375,138.45 117.40097,114.70215 Z M 137.3418,151.14844 L 126.25572,184.96638 167.63748,154.00313 Z M 121.20352,187.67325 L 15.432422,191.5875 111.259384,194.8297 Z M 73.15,40.875 L 125,43.6 110.839066,25.346874 Z M 125,43.6 L 116.620316,83.962494 137.28342,82.80234 Z M 102.9,64.8 L 92.575,72.475 99.01446,70.60918 Z M 104.3,141.9 L 131.5375,138.45 113.76519,112.7581 Z M 135.3,150.9 L 126.25572,184.96638 137.3418,151.14844 Z M 126.25572,184.96638 L 15.432422,191.5875 121.20352,187.67325 Z M 125,43.6 L 102.9,64.8 116.620316,83.962494 Z M 102.9,64.8 L 91.2,73 92.575,72.475 Z M 104.3,141.9 L 133.66719,146.4 131.5375,138.45 Z M 134.98093,150.30762 L 126.25572,184.96638 135.3,150.9 Z M 126.25572,184.96638 L 70,153.6 15.432422,191.5875 Z M 73.15,40.875 L 102.9,64.8 125,43.6 Z M 104.3,141.9 L 134.59435,149.32031 133.66719,146.4 Z M 134.59435,149.32031 L 126.25572,184.96638 134.98093,150.30762 Z M 73.15,40.875 L 91.2,73 102.9,64.8 Z M 104.3,141.9 L 126.25572,184.96638 134.59435,149.32031 Z M 70,153.6 L 91.2,73 73.15,40.875 Z M 104.3,141.9 L 70,153.6 126.25572,184.96638 Z M 70,153.6 L 104.3,141.9 91.2,73 Z " style="fill:#FFFFFF;fill-opacity:1;" />
</svg>
