<svg x="3.7999992" y="0.6999998" viewBox="0 0 36.1 39.8" xmlns="http://www.w3.org/2000/svg">
	<path d="M 31.3,16.4 L 32.193165,15.789844 31.749146,16.033104 Z M 32.193165,15.789844 L 33.81543,15.900782 33.04531,15.64375 Z M 33.81543,15.900782 L 34.727074,16.908886 34.4625,16.5 Z M 34.727074,16.908886 L 35.11267,17.90713 34.945507,17.380468 Z M 35.11267,17.90713 L 35.272682,19.095215 35.223434,18.48125 Z M 35.272682,19.095215 L 35.166092,20.412207 35.255272,19.741405 Z M 35.166092,20.412207 L 34.63945,21.875782 35,21.1 Z M 34.63945,21.875782 L 33.074997,23.95 34.178123,22.618752 Z M 33.074997,23.95 L 31.426172,25.34922 31.934376,24.98125 Z M 30.5,26.4 L 30.612501,30.8375 30.7,30.3 Z M 30.612501,30.8375 L 23.9,37.7 30.3,31.3 Z M 23.9,37.7 L 23.08965,38.38906 23.509253,38.069145 Z M 23.08965,38.38906 L 22.179688,38.881252 22.645142,38.659767 Z M 22.179688,38.881252 L 21.20176,39.176563 21.69724,39.05352 Z M 21.20176,39.176563 L 20.1875,39.275 20.697193,39.250393 Z M 20.1875,39.275 L 19.168556,39.176563 19.676636,39.250393 Z M 19.168556,39.176563 L 18.176563,38.881252 18.667213,39.05352 Z M 18.176563,38.881252 L 17.243164,38.38906 17.700562,38.659767 Z M 17.243164,38.38906 L 16.4,37.7 16.808325,38.069145 Z M 16.4,37.7 L 9.487499,30.637499 9.8,31.1 Z M 9.487499,30.637499 L 9.5,26.3 9.4,30.1 Z M 9,25.5 L 6.925,23.8875 8.065625,24.895313 Z M 6.925,23.8875 L 5.360547,21.804493 5.821875,22.560938 Z M 5.360547,21.804493 L 4.816333,20.312206 5,21 Z M 4.816333,20.312206 L 4.6816163,18.995213 4.711914,19.641405 Z M 4.6816163,18.995213 L 4.822876,17.807129 4.7203126,18.381248 Z M 4.822876,17.807129 L 5.1990967,16.808887 4.9841795,17.280468 Z M 5.1990967,16.808887 L 6.114258,15.800781 5.4624996,16.4 Z M 6.114258,15.800781 L 7.7740235,15.689843 6.8984375,15.54375 Z M 7.7740235,15.689843 L 8.7,16.3 8.233276,15.9331045 Z M 8.7,16.3 L 8.748438,10.389062 8.504492,13.238476 Z M 8.748438,10.389062 L 9.440039,7.804492 9.037767,9.060375 Z M 9.440039,7.804492 L 10.5875,5.5375 9.956274,6.6280026 Z M 10.5875,5.5375 L 12.199023,3.6408203 11.334742,4.5395746 Z M 12.199023,3.6408203 L 14.282812,2.1671877 13.181372,2.8478272 Z M 14.282812,2.1671877 L 16.84707,1.169336 15.504371,1.6054933 Z M 16.84707,1.169336 L 19.9,0.7 18.311937,0.8653077 Z M 19.9,0.7 L 21.670483,0.88288575 20.1,0.7 Z M 21.670483,0.88288575 L 24.449928,1.6511964 23.120117,1.2021484 Z M 24.449928,1.6511964 L 26.754175,2.91228 25.660938,2.2234375 Z M 26.754175,2.91228 L 28.59143,4.613403 27.730663,3.7111325 Z M 28.59143,4.613403 L 29.969896,6.701831 29.3375,5.6124997 Z M 29.969896,6.701831 L 31.195312,10.4453125 30.489647,7.8748045 Z M 31.195312,10.4453125 L 31.3,16.3 31.462694,13.271288 Z M 31.3,16.4 L 33.81543,15.900782 32.193165,15.789844 Z M 33.81543,15.900782 L 35.11267,17.90713 34.727074,16.908886 Z M 35.11267,17.90713 L 35.166092,20.412207 35.272682,19.095215 Z M 35.166092,20.412207 L 33.074997,23.95 34.63945,21.875782 Z M 33.074997,23.95 L 31,25.6 31.426172,25.34922 Z M 30.5,26.4 L 23.9,37.7 30.612501,30.8375 Z M 23.9,37.7 L 22.179688,38.881252 23.08965,38.38906 Z M 22.179688,38.881252 L 20.1875,39.275 21.20176,39.176563 Z M 20.1875,39.275 L 18.176563,38.881252 19.168556,39.176563 Z M 18.176563,38.881252 L 16.4,37.7 17.243164,38.38906 Z M 16.4,37.7 L 9.5,26.3 9.487499,30.637499 Z M 9.625,25.9375 L 6.925,23.8875 9,25.5 Z M 6.925,23.8875 L 4.816333,20.312206 5.360547,21.804493 Z M 4.816333,20.312206 L 4.822876,17.807129 4.6816163,18.995213 Z M 4.822876,17.807129 L 6.114258,15.800781 5.1990967,16.808887 Z M 6.114258,15.800781 L 8.7,16.3 7.7740235,15.689843 Z M 8.7,16.3 L 9.440039,7.804492 8.748438,10.389062 Z M 9.440039,7.804492 L 12.199023,3.6408203 10.5875,5.5375 Z M 12.199023,3.6408203 L 16.84707,1.169336 14.282812,2.1671877 Z M 16.84707,1.169336 L 21.670483,0.88288575 19.9,0.7 Z M 21.670483,0.88288575 L 26.754175,2.91228 24.449928,1.6511964 Z M 26.754175,2.91228 L 29.969896,6.701831 28.59143,4.613403 Z M 29.969896,6.701831 L 31.3,16.3 31.195312,10.4453125 Z M 31.3,16.4 L 35.11267,17.90713 33.81543,15.900782 Z M 35.11267,17.90713 L 33.074997,23.95 35.166092,20.412207 Z M 30.6375,25.962502 L 23.9,37.7 30.5,26.4 Z M 23.9,37.7 L 20.1875,39.275 22.179688,38.881252 Z M 20.1875,39.275 L 16.4,37.7 18.176563,38.881252 Z M 16.4,37.7 L 9.625,25.9375 9.5,26.3 Z M 9.625,25.9375 L 4.816333,20.312206 6.925,23.8875 Z M 4.816333,20.312206 L 6.114258,15.800781 4.822876,17.807129 Z M 8.7,16.3 L 12.199023,3.6408203 9.440039,7.804492 Z M 12.199023,3.6408203 L 21.670483,0.88288575 16.84707,1.169336 Z M 21.670483,0.88288575 L 29.969896,6.701831 26.754175,2.91228 Z M 29.969896,6.701831 L 31.3,16.4 31.3,16.3 Z M 31.3,16.4 L 33.074997,23.95 35.11267,17.90713 Z M 30.6375,25.962502 L 20.1875,39.275 23.9,37.7 Z M 20.1875,39.275 L 9.625,25.9375 16.4,37.7 Z M 9.625,25.9375 L 6.114258,15.800781 4.816333,20.312206 Z M 8.7,16.3 L 21.670483,0.88288575 12.199023,3.6408203 Z M 21.670483,0.88288575 L 31.3,16.4 29.969896,6.701831 Z M 31.3,16.4 L 31,25.6 33.074997,23.95 Z M 30.6375,25.962502 L 9.625,25.9375 20.1875,39.275 Z M 9.625,25.9375 L 8.7,16.3 6.114258,15.800781 Z M 8.7,16.3 L 31.3,16.4 21.670483,0.88288575 Z M 31.3,16.4 L 30.6375,25.962502 31,25.6 Z M 30.6375,25.962502 L 8.7,16.3 9.625,25.9375 Z M 8.7,16.3 L 30.6375,25.962502 31.3,16.4 Z " style="fill:#5835D8;fill-opacity:1;" />
	<path d="M 26.832617,25.954689 L 25.730663,26.356445 26.3,26.2 Z M 25.730663,26.356445 L 24.59668,26.289648 25.157812,26.382812 Z M 24.59668,26.289648 L 23.570507,25.786915 24.0625,26.0875 Z M 23.570507,25.786915 L 22.774023,24.932617 23.135937,25.398438 Z M 22.774023,24.932617 L 22.343555,23.826563 22.5,24.4 Z M 22.343555,23.826563 L 22.41035,22.670313 22.317188,23.24375 Z M 22.41035,22.670313 L 22.913086,21.626562 22.6125,22.125 Z M 22.913086,21.626562 L 23.767382,20.845312 23.301563,21.19375 Z M 23.767382,20.845312 L 24.869335,20.443554 24.3,20.6 Z M 24.869335,20.443554 L 26.003319,20.510351 25.442186,20.417187 Z M 26.003319,20.510351 L 27.029491,21.013084 26.537498,20.7125 Z M 27.029491,21.013084 L 27.825977,21.867382 27.464062,21.401562 Z M 27.825977,21.867382 L 28.256447,22.973436 28.1,22.4 Z M 28.256447,22.973436 L 28.189648,24.129686 28.282814,23.55625 Z M 28.189648,24.129686 L 27.686913,25.173439 27.9875,24.675 Z M 27.686913,25.173439 L 26.832617,25.954689 27.298435,25.60625 Z M 26.832617,25.954689 L 24.59668,26.289648 25.730663,26.356445 Z M 24.59668,26.289648 L 22.774023,24.932617 23.570507,25.786915 Z M 22.774023,24.932617 L 22.41035,22.670313 22.343555,23.826563 Z M 22.41035,22.670313 L 23.767382,20.845312 22.913086,21.626562 Z M 23.767382,20.845312 L 26.003319,20.510351 24.869335,20.443554 Z M 26.003319,20.510351 L 27.825977,21.867382 27.029491,21.013084 Z M 27.825977,21.867382 L 28.189648,24.129686 28.256447,22.973436 Z M 28.189648,24.129686 L 26.832617,25.954689 27.686913,25.173439 Z M 26.832617,25.954689 L 22.774023,24.932617 24.59668,26.289648 Z M 22.774023,24.932617 L 23.767382,20.845312 22.41035,22.670313 Z M 23.767382,20.845312 L 27.825977,21.867382 26.003319,20.510351 Z M 27.825977,21.867382 L 26.832617,25.954689 28.189648,24.129686 Z M 26.832617,25.954689 L 23.767382,20.845312 22.774023,24.932617 Z M 23.767382,20.845312 L 26.832617,25.954689 27.825977,21.867382 Z " style="fill:#FFFFFF;fill-opacity:1;" />
	<path d="M 14.9,18.2 L 24.2,24 24.6,23.4 Z M 24.2,24 L 14.9,18.2 14.5,18.8 Z " style="fill:#FFFFFF;fill-opacity:1;" />
	<path d="M 14.423437,20.021875 L 12.534375,20.021875 13.5,20.2 Z M 12.534375,20.021875 L 11.278126,18.765625 11.775001,19.525002 Z M 11.278126,18.765625 L 11.278126,16.834375 11.1,17.8 Z M 11.278126,16.834375 L 12.534375,15.578125 11.775001,16.075 Z M 12.534375,15.578125 L 14.465625,15.578125 13.5,15.4 Z M 14.465625,15.578125 L 15.721874,16.834375 15.224999,16.075 Z M 15.721874,16.834375 L 15.707812,18.765625 15.9,17.8 Z M 15.707812,18.765625 L 14.423437,20.021875 15.1875,19.525002 Z M 14.423437,20.021875 L 11.278126,18.765625 12.534375,20.021875 Z M 11.278126,18.765625 L 12.534375,15.578125 11.278126,16.834375 Z M 12.534375,15.578125 L 15.721874,16.834375 14.465625,15.578125 Z M 15.721874,16.834375 L 14.423437,20.021875 15.707812,18.765625 Z M 14.423437,20.021875 L 12.534375,15.578125 11.278126,18.765625 Z M 12.534375,15.578125 L 14.423437,20.021875 15.721874,16.834375 Z " style="fill:#FFFFFF;fill-opacity:1;" />
	<path d="M 26.0125,6.075 L 27.1,7.2 26.664062,6.534375 Z M 27.1,7.2 L 27.025,8.8125 27.221874,8.029688 Z M 27.025,8.8125 L 25.9,9.9 26.565624,9.464062 Z M 25.9,9.9 L 24.325,9.825001 25.1125,10.021875 Z M 24.325,9.825001 L 23.2,8.7 23.650002,9.365624 Z M 23.2,8.7 L 23.275,7.0874996 23.078125,7.8703117 Z M 23.275,7.0874996 L 24.4,6 23.734375,6.4359374 Z M 24.4,6 L 26.0125,6.075 25.229687,5.878125 Z M 26.0125,6.075 L 27.025,8.8125 27.1,7.2 Z M 27.025,8.8125 L 24.325,9.825001 25.9,9.9 Z M 24.325,9.825001 L 23.275,7.0874996 23.2,8.7 Z M 23.275,7.0874996 L 26.0125,6.075 24.4,6 Z M 26.0125,6.075 L 24.325,9.825001 27.025,8.8125 Z M 24.325,9.825001 L 26.0125,6.075 23.275,7.0874996 Z " style="fill:#FFFFFF;fill-opacity:1;" />
	<path d="M 24.7,9.2 L 25.7,20.8 25.7,9.2 Z M 25.7,20.8 L 24.7,9.2 24.7,20.8 Z " style="fill:#FFFFFF;fill-opacity:1;" />
	<path d="M 16.974998,30.175 L 18.1,31.3 17.65,30.634373 Z M 18.1,31.3 L 18.025,32.9125 18.221874,32.129684 Z M 18.025,32.9125 L 16.9,34 17.565624,33.564064 Z M 16.9,34 L 15.2875,33.925 16.070312,34.121876 Z M 15.2875,33.925 L 14.2,32.8 14.635938,33.465626 Z M 14.2,32.8 L 14.275,31.224998 14.078125,32.012497 Z M 14.275,31.224998 L 15.4,30.1 14.734375,30.55 Z M 15.4,30.1 L 16.974998,30.175 16.1875,29.978127 Z M 16.974998,30.175 L 18.025,32.9125 18.1,31.3 Z M 18.025,32.9125 L 15.2875,33.925 16.9,34 Z M 15.2875,33.925 L 14.275,31.224998 14.2,32.8 Z M 14.275,31.224998 L 16.974998,30.175 15.4,30.1 Z M 16.974998,30.175 L 15.2875,33.925 18.025,32.9125 Z M 15.2875,33.925 L 16.974998,30.175 14.275,31.224998 Z " style="fill:#FFFFFF;fill-opacity:1;" />
	<path d="M 24.6,24.5 L 17.3,32 25.2,25.2 Z M 17.3,32 L 24.6,24.5 16.7,31.3 Z " style="fill:#FFFFFF;fill-opacity:1;" />
</svg>
