<svg x="1.7999992" y="1.7999992" viewBox="0 0 38.2 38.2" xmlns="http://www.w3.org/2000/svg">
	<path d="M 11.7,17 L 12,16.9 11.8,16.9 Z M 16.8,16.8 L 16.9,11.8 16.8,12.1 Z M 16.9,11.8 L 22.5,11.7 17.2,11.7 Z M 22.5,11.7 L 22.9,12.1 22.8,11.8 Z M 23,16.9 L 28,17 27.7,16.9 Z M 28,17 L 28.1,22.6 28.1,17.3 Z M 28.1,22.6 L 27.7,23 28,22.9 Z M 22.9,23.1 L 22.8,28.1 22.9,27.8 Z M 22.8,28.1 L 17.2,28.2 22.5,28.2 Z M 17.2,28.2 L 16.8,27.8 16.9,28.1 Z M 16.7,23 L 11.7,22.9 12,23 Z M 11.7,22.9 L 11.6,17.3 11.6,22.6 Z M 11.6,17.3 L 11.7,17 11.6,17.1 Z M 11.7,17 L 16.7,16.9 12,16.9 Z M 16.8,16.9 L 16.9,11.8 16.8,16.8 Z M 16.9,11.8 L 22.9,12.1 22.5,11.7 Z M 22.9,16.9 L 28,17 23,16.9 Z M 28,17 L 27.7,23 28.1,22.6 Z M 22.9,23 L 22.8,28.1 22.9,23.1 Z M 22.8,28.1 L 16.8,27.8 17.2,28.2 Z M 16.8,23 L 11.7,22.9 16.7,23 Z M 11.7,22.9 L 11.7,17 11.6,17.3 Z M 11.7,17 L 16.8,16.9 16.7,16.9 Z M 16.8,16.9 L 22.9,12.1 16.9,11.8 Z M 22.9,16.9 L 27.7,23 28,17 Z M 22.9,23 L 16.8,27.8 22.8,28.1 Z M 16.8,23 L 11.7,17 11.7,22.9 Z M 16.8,16.9 L 22.9,16.8 22.9,12.1 Z M 22.9,16.9 L 23,23 27.7,23 Z M 22.9,23 L 16.8,23.1 16.8,27.8 Z M 16.8,23 L 16.8,16.9 11.7,17 Z M 16.8,16.9 L 22.9,16.9 22.9,16.8 Z M 22.9,16.9 L 22.9,23 23,23 Z M 22.9,23 L 16.8,23 16.8,23.1 Z M 16.8,23 L 22.9,16.9 16.8,16.9 Z M 22.9,16.9 L 16.8,23 22.9,23 Z " style="fill:#FFFFFF;fill-opacity:1;" />
	<path d="M 33.9,20 L 33.90547,21.126171 34,20 Z M 33.90547,21.126171 L 32.9,24.8 33.65625,22.353125 Z M 31.8,27.5 L 27.5,31.8 38.2,38.2 Z M 27.5,31.8 L 23.974998,33.425 25.79375,32.734375 Z M 23.974998,33.425 L 20,34 22.04375,33.853127 Z M 20,34 L 16.025002,33.425 17.95625,33.853127 Z M 16.025002,33.425 L 12.5,31.8 14.20625,32.734375 Z M 12.5,31.8 L 8.2,27.5 1.8,38.2 Z M 8.2,27.5 L 6.575,23.974998 7.265625,25.79375 Z M 6.575,23.974998 L 6,20 6.146875,22.04375 Z M 6,20 L 7.9265623,21.759377 7.8,20 Z M 9.6,26.4 L 13.6,30.4 13.6,26.4 Z M 26.4,30.4 L 30.4,26.4 26.4,26.4 Z M 30.4,13.6 L 26.4,9.6 26.4,13.6 Z M 13.6,9.6 L 9.6,13.6 13.6,13.6 Z M 7.9265623,18.254686 L 6,20 7.8,20 Z M 6,20 L 6.575,16.025002 6.146875,17.95625 Z M 6.575,16.025002 L 8.2,12.5 7.265625,14.20625 Z M 8.2,12.5 L 12.4,8.2 1.8,1.8 Z M 12.4,8.2 L 15.924999,6.575 14.106249,7.265625 Z M 15.924999,6.575 L 19.9,6 17.856249,6.146875 Z M 19.9,6 L 23.875,6.575 21.94375,6.146875 Z M 23.875,6.575 L 27.4,8.2 25.69375,7.265625 Z M 27.4,8.2 L 31.7,12.5 38.1,1.8 Z M 31.7,12.5 L 33.325,16.025002 32.634377,14.20625 Z M 33.325,16.025002 L 33.9,20 33.753128,17.95625 Z M 33.9,20 L 32.9,24.8 33.90547,21.126171 Z M 32.9,24.8 L 27.5,31.8 31.8,27.5 Z M 27.5,31.8 L 20,34 23.974998,33.425 Z M 20,34 L 12.5,31.8 16.025002,33.425 Z M 12.5,31.8 L 6.575,23.974998 8.2,27.5 Z M 6.575,23.974998 L 7.9265623,21.759377 6,20 Z M 8.2875,16.6125 L 6,20 7.9265623,18.254686 Z M 6,20 L 8.2,12.5 6.575,16.025002 Z M 8.2,12.5 L 15.924999,6.575 12.4,8.2 Z M 15.924999,6.575 L 23.875,6.575 19.9,6 Z M 23.875,6.575 L 31.7,12.5 27.4,8.2 Z M 31.7,12.5 L 33.9,20 33.325,16.025002 Z M 33.9,20 L 27.5,31.8 32.9,24.8 Z M 6.575,23.974998 L 8.2875,23.425 7.9265623,21.759377 Z M 8.854689,15.064062 L 6,20 8.2875,16.6125 Z M 6.575,23.974998 L 8.854689,24.978127 8.2875,23.425 Z M 9.6,13.6 L 6,20 8.854689,15.064062 Z M 6.575,23.974998 L 9.6,26.4 8.854689,24.978127 Z M 9.6,13.6 L 8.2,12.5 6,20 Z M 12.5,31.8 L 9.6,26.4 6.575,23.974998 Z M 13.6,9.6 L 8.2,12.5 9.6,13.6 Z M 12.5,31.8 L 13.6,30.4 9.6,26.4 Z M 13.6,9.6 L 15.924999,6.575 8.2,12.5 Z M 20,34 L 13.6,30.4 12.5,31.8 Z M 15.021875,8.854689 L 15.924999,6.575 13.6,9.6 Z M 20,34 L 15.064062,31.145313 13.6,30.4 Z M 16.575,8.2875 L 15.924999,6.575 15.021875,8.854689 Z M 20,34 L 16.6125,31.712502 15.064062,31.145313 Z M 18.240623,7.9265623 L 15.924999,6.575 16.575,8.2875 Z M 20,34 L 18.254686,32.07344 16.6125,31.712502 Z M 20,7.8 L 15.924999,6.575 18.240623,7.9265623 Z M 20,34 L 20,32.2 18.254686,32.07344 Z M 21.745314,7.9265623 L 15.924999,6.575 20,7.8 Z M 27.5,31.8 L 20,32.2 20,34 Z M 23.3875,8.2875 L 15.924999,6.575 21.745314,7.9265623 Z M 27.5,31.8 L 21.759377,32.07344 20,32.2 Z M 23.3875,8.2875 L 23.875,6.575 15.924999,6.575 Z M 27.5,31.8 L 23.425,31.712502 21.759377,32.07344 Z M 24.935938,8.854689 L 23.875,6.575 23.3875,8.2875 Z M 27.5,31.8 L 24.978127,31.145313 23.425,31.712502 Z M 26.4,9.6 L 23.875,6.575 24.935938,8.854689 Z M 27.5,31.8 L 26.4,30.4 24.978127,31.145313 Z M 30.4,13.6 L 23.875,6.575 26.4,9.6 Z M 27.5,31.8 L 30.4,26.4 26.4,30.4 Z M 30.4,13.6 L 31.7,12.5 23.875,6.575 Z M 33.9,20 L 30.4,26.4 27.5,31.8 Z M 31.145313,15.021875 L 31.7,12.5 30.4,13.6 Z M 33.9,20 L 31.145313,24.935938 30.4,26.4 Z M 31.712502,16.575 L 31.7,12.5 31.145313,15.021875 Z M 33.9,20 L 31.712502,23.3875 31.145313,24.935938 Z M 32.07344,18.240623 L 31.7,12.5 31.712502,16.575 Z M 33.9,20 L 32.07344,21.745314 31.712502,23.3875 Z M 32.2,20 L 31.7,12.5 32.07344,18.240623 Z M 33.9,20 L 32.2,20 32.07344,21.745314 Z M 32.2,20 L 33.9,20 31.7,12.5 Z " style="fill:#FFE000;fill-opacity:1;" />
</svg>
