<svg x="-0.9000015" y="2.5" viewBox="0 0 38.9 38.7" xmlns="http://www.w3.org/2000/svg">
	<path d="M 28.6,3.8 L 38.5,8.5 38.5,7.9 Z M 35.3,10.6 L 37.167187,15.775001 36.440426,13.121876 Z M 37.167187,15.775001 L 37.412502,21.25 37.48848,18.503126 Z M 37.412502,21.25 L 36.101562,26.575 36.947464,23.959375 Z M 36.101562,26.575 L 33.3,31.3 34.883003,29.040625 Z M 33.3,31.3 L 29.899998,34.59375 31.712498,33.080467 Z M 29.899998,34.59375 L 25.75,36.800003 27.899998,35.835155 Z M 25.75,36.800003 L 21.149998,37.881252 23.4875,37.483597 Z M 21.149998,37.881252 L 16.4,37.8 18.774998,37.98828 Z M 16.4,37.8 L 11.375,36.2625 13.824219,37.25625 Z M 11.375,36.2625 L 7.025,33.15 9.094531,34.875 Z M 7.025,33.15 L 3.6875,28.912502 5.208594,31.143751 Z M 3.6875,28.912502 L 1.7,24 2.5039062,26.5125 Z M 1.7,24 L 1.2369142,20.092382 1.3427002,22.044947 Z M 1.2369142,20.092382 L 1.7265626,16.270311 1.3693116,18.161205 Z M 1.7265626,16.270311 L 3.062305,12.68496 2.2953372,14.438598 Z M 3.062305,12.68496 L 5.1375003,9.487499 4.0141363,11.0282955 Z M 5.1375003,9.487499 L 7.845508,6.8291016 6.4190674,8.081469 Z M 7.845508,6.8291016 L 11.079688,4.8609376 9.403492,5.7492924 Z M 11.079688,4.8609376 L 14.733399,3.7341795 12.860767,4.1829348 Z M 14.733399,3.7341795 L 18.7,3.6 16.684254,3.5335693 Z M 30.5,13.9 L 27.1,15.5 27.6,15.8 Z M 27.1,15.5 L 28.6,3.8 28.1,4.1 Z M 28.6,3.8 L 35.3,10.6 38.5,8.5 Z M 35.3,10.6 L 37.412502,21.25 37.167187,15.775001 Z M 37.412502,21.25 L 33.3,31.3 36.101562,26.575 Z M 33.3,31.3 L 25.75,36.800003 29.899998,34.59375 Z M 25.75,36.800003 L 16.4,37.8 21.149998,37.881252 Z M 16.4,37.8 L 7.025,33.15 11.375,36.2625 Z M 7.025,33.15 L 1.7,24 3.6875,28.912502 Z M 1.7,24 L 1.7265626,16.270311 1.2369142,20.092382 Z M 1.7265626,16.270311 L 5.1375003,9.487499 3.062305,12.68496 Z M 5.1375003,9.487499 L 11.079688,4.8609376 7.845508,6.8291016 Z M 11.079688,4.8609376 L 18.7,3.6 14.733399,3.7341795 Z M 30.5,13.9 L 28.6,3.8 27.1,15.5 Z M 28.6,3.8 L 37.412502,21.25 35.3,10.6 Z M 37.412502,21.25 L 25.75,36.800003 33.3,31.3 Z M 25.75,36.800003 L 7.025,33.15 16.4,37.8 Z M 7.025,33.15 L 1.7265626,16.270311 1.7,24 Z M 1.7265626,16.270311 L 11.079688,4.8609376 5.1375003,9.487499 Z M 11.079688,4.8609376 L 16.359375,4.0033207 18.7,3.6 Z M 31.321877,15.655273 L 28.6,3.8 30.5,13.9 Z M 11.079688,4.8609376 L 14.09375,4.7453127 16.359375,4.0033207 Z M 31.84375,17.517187 L 28.6,3.8 31.321877,15.655273 Z M 11.079688,4.8609376 L 11.950001,5.7990236 14.09375,4.7453127 Z M 31.84375,17.517187 L 37.412502,21.25 28.6,3.8 Z M 11.079688,4.8609376 L 9.975,7.1375 11.950001,5.7990236 Z M 32.075,19.442383 L 37.412502,21.25 31.84375,17.517187 Z M 11.079688,4.8609376 L 8.215625,8.733789 9.975,7.1375 Z M 32.025,21.3875 L 37.412502,21.25 32.075,19.442383 Z M 1.7265626,16.270311 L 8.215625,8.733789 11.079688,4.8609376 Z M 31.703125,23.309181 L 37.412502,21.25 32.025,21.3875 Z M 1.7265626,16.270311 L 6.71875,10.560938 8.215625,8.733789 Z M 31.118752,25.164062 L 37.412502,21.25 31.703125,23.309181 Z M 1.7265626,16.270311 L 5.53125,12.591992 6.71875,10.560938 Z M 30.28125,26.90879 L 37.412502,21.25 31.118752,25.164062 Z M 1.7265626,16.270311 L 4.7,14.8 5.53125,12.591992 Z M 29.2,28.5 L 37.412502,21.25 30.28125,26.90879 Z M 1.7265626,16.270311 L 4.298437,16.148438 4.7,14.8 Z M 27.594288,30.206324 L 37.412502,21.25 29.2,28.5 Z M 1.7265626,16.270311 L 4.1125,17.4875 4.298437,16.148438 Z M 27.594288,30.206324 L 25.75,36.800003 37.412502,21.25 Z M 1.7265626,16.270311 L 4.095312,18.807812 4.1125,17.4875 Z M 25.83711,31.547459 L 25.75,36.800003 27.594288,30.206324 Z M 1.7265626,16.270311 L 4.2,20.1 4.095312,18.807812 Z M 23.962158,32.53791 L 25.75,36.800003 25.83711,31.547459 Z M 1.7265626,16.270311 L 4.5400877,22.348755 4.2,20.1 Z M 22.003124,33.192184 L 25.75,36.800003 23.962158,32.53791 Z M 7.025,33.15 L 4.5400877,22.348755 1.7265626,16.270311 Z M 19.993702,33.52478 L 25.75,36.800003 22.003124,33.192184 Z M 7.025,33.15 L 5.2003903,24.435352 4.5400877,22.348755 Z M 17.967579,33.550194 L 25.75,36.800003 19.993702,33.52478 Z M 7.025,33.15 L 6.147217,26.345287 5.2003903,24.435352 Z M 15.958447,33.282936 L 25.75,36.800003 17.967579,33.550194 Z M 7.025,33.15 L 7.346875,28.064062 6.147217,26.345287 Z M 14,32.7375 L 25.75,36.800003 15.958447,33.282936 Z M 7.025,33.15 L 8.765675,29.577171 7.346875,28.064062 Z M 14,32.7375 L 7.025,33.15 25.75,36.800003 Z M 7.025,33.15 L 10.369922,30.870117 8.765675,29.577171 Z M 12.125928,31.928392 L 7.025,33.15 14,32.7375 Z M 7.025,33.15 L 12.125928,31.928392 10.369922,30.870117 Z " style="fill:#FFA91F;fill-opacity:1;" />
	<path d="M 18,22.3 L 16.9,23.4 17.675,23.075 Z M 16.9,23.4 L 15.8,22.3 16.125,23.075 Z M 15.8,22.3 L 16.125,11.025 15.8,11.8 Z M 16.125,11.025 L 17.675,11.025 16.9,10.7 Z M 17.675,11.025 L 18,22.3 18,11.8 Z M 18,22.3 L 15.8,22.3 16.9,23.4 Z M 15.8,22.3 L 17.675,11.025 16.125,11.025 Z M 17.675,11.025 L 15.8,22.3 18,22.3 Z " style="fill:#FFA91F;fill-opacity:1;" />
	<path d="M 23.509377,26.901562 L 22.3,27 23.025002,27.0625 Z M 22.3,27 L 15.8,22.5125 16.3,23.2 Z M 15.8,22.5125 L 16.5875,21.099998 15.9,21.6 Z M 16.5875,21.099998 L 23.5,25 17.5,21.2 Z M 23.5,25 L 23.9,26.6 24,25.6875 Z M 23.9,26.6 L 22.3,27 23.509377,26.901562 Z M 22.3,27 L 16.5875,21.099998 15.8,22.5125 Z M 16.5875,21.099998 L 23.9,26.6 23.5,25 Z M 23.9,26.6 L 16.5875,21.099998 22.3,27 Z " style="fill:#FFA91F;fill-opacity:1;" />
</svg>
