<svg x="1.6999998" y="1.2000008" viewBox="0 0 38.3 38.9" xmlns="http://www.w3.org/2000/svg">
	<path d="M 37.203125,38.545315 L 36.8,38.1 36.8,38.2 Z M 36.8,38.1 L 25.675,20.0125 25.9,20.8 Z M 25.675,20.0125 L 36.8,1.9 25.9,19.3 Z M 36.8,1.9 L 37.7,1.5375 37.203125,1.5546875 Z M 37.7,1.5375 L 38.3,2.3 38.121872,1.8015625 Z M 38.3,2.3 L 38.2125,12.45 38.3,11.7 Z M 38.2125,12.45 L 34.2,19.4 37.9,13.2 Z M 34.2,20.7 L 38.2125,27.574999 37.9,26.9 Z M 38.2125,27.574999 L 38.3,37.8 38.3,28.4 Z M 38.3,37.8 L 37.7,38.5625 38.121872,38.298435 Z M 37.7,38.5625 L 36.8,38.1 37.203125,38.545315 Z M 25.675,20.0125 L 37.7,1.5375 36.8,1.9 Z M 37.7,1.5375 L 38.2125,12.45 38.3,2.3 Z M 34.2,20.7 L 38.3,37.8 38.2125,27.574999 Z M 38.3,37.8 L 36.8,38.1 37.7,38.5625 Z M 25.675,20.0125 L 38.2125,12.45 37.7,1.5375 Z M 34.2,20.7 L 36.8,38.1 38.3,37.8 Z M 25.675,20.0125 L 34.2,19.4 38.2125,12.45 Z M 34.05,20.05 L 36.8,38.1 34.2,20.7 Z M 25.675,20.0125 L 34.05,20.05 34.2,19.4 Z M 34.05,20.05 L 25.675,20.0125 36.8,38.1 Z " style="fill:#FF7D1D;fill-opacity:0.5;" />
	<path d="M 23.6875,37.189064 L 23.3,36.7 23.3,36.9 Z M 23.3,36.7 L 13.175,20.099998 13.4,20.8 Z M 13.175,20.099998 L 23.3,3.5 13.4,19.4 Z M 23.3,3.5 L 24.150002,3.2125 23.6875,3.2109375 Z M 24.150002,3.2125 L 24.7,3.9 24.5375,3.4578128 Z M 24.7,3.9 L 24.612501,13.25 24.7,12.5 Z M 24.612501,13.25 L 21,19.6 24.3,14 Z M 21,20.8 L 24.612501,27.074999 24.3,26.4 Z M 24.612501,27.074999 L 24.7,36.5 24.7,27.9 Z M 24.7,36.5 L 24.150002,37.1875 24.5375,36.942184 Z M 24.150002,37.1875 L 23.3,36.7 23.6875,37.189064 Z M 13.175,20.099998 L 24.150002,3.2125 23.3,3.5 Z M 24.150002,3.2125 L 24.612501,13.25 24.7,3.9 Z M 21,20.8 L 24.7,36.5 24.612501,27.074999 Z M 24.7,36.5 L 23.3,36.7 24.150002,37.1875 Z M 13.175,20.099998 L 24.612501,13.25 24.150002,3.2125 Z M 20.849998,20.2 L 24.7,36.5 21,20.8 Z M 24.7,36.5 L 13.175,20.099998 23.3,36.7 Z M 13.175,20.099998 L 21,19.6 24.612501,13.25 Z M 20.849998,20.2 L 13.175,20.099998 24.7,36.5 Z M 13.175,20.099998 L 20.849998,20.2 21,19.6 Z " style="fill:#FF7D1D;fill-opacity:0.8;" />
	<path d="M 10.8,34.8 L 1.9,20.7 10.8,34.9 Z M 1.9,20.7 L 1.9,19.4 1.75,20.05 Z M 1.9,19.4 L 11.5125,4.8 10.8,5.1 Z M 11.5125,4.8 L 12,13 12,5.4 Z M 12,13 L 11.6,14.4 11.9125,13.7375 Z M 8.7,20.5 L 11.9125,26.162498 11.6,25.5 Z M 11.9125,26.162498 L 12,34.5 12,26.9 Z M 12,34.5 L 10.8,34.8 11.5125,35.1375 Z M 10.8,34.8 L 1.9,19.4 1.9,20.7 Z M 1.9,19.4 L 12,13 11.5125,4.8 Z M 12,13 L 8.7,19.4 11.6,14.4 Z M 8.7,20.5 L 12,34.5 11.9125,26.162498 Z M 12,34.5 L 1.9,19.4 10.8,34.8 Z M 1.9,19.4 L 8.7,19.4 12,13 Z M 8.55,19.9125 L 12,34.5 8.7,20.5 Z M 1.9,19.4 L 8.55,19.9125 8.7,19.4 Z M 8.55,19.9125 L 1.9,19.4 12,34.5 Z " style="fill:#FF7D1D;fill-opacity:1;" />
</svg>
