<svg x="1.8" y="0.7" viewBox="0 0 38.3 38.3" xmlns="http://www.w3.org/2000/svg">
	<path d="M 2.3999999,1.0375 L 3.3,1.4 2.896875,1.0546875 Z M 3.3,1.4 L 14.425,19.4875 14.2,18.7 Z M 14.425,19.4875 L 3.3,37.6 14.2,20.2 Z M 3.3,37.6 L 2.3999999,37.9625 2.896875,37.945312 Z M 2.3999999,37.9625 L 1.8,37.2 1.9781249,37.698437 Z M 1.8,37.2 L 1.8499999,27.05 1.8,27.8 Z M 1.8499999,27.05 L 5.9,20.1 2.2,26.3 Z M 5.9,18.8 L 1.8874999,11.924999 2.2,12.6 Z M 1.8874999,11.924999 L 1.8,1.8 1.8,11.1 Z M 1.8,1.8 L 2.3999999,1.0375 1.9781249,1.3015625 Z M 2.3999999,1.0375 L 14.425,19.4875 3.3,1.4 Z M 14.425,19.4875 L 2.3999999,37.9625 3.3,37.6 Z M 2.3999999,37.9625 L 1.8499999,27.05 1.8,37.2 Z M 5.9,18.8 L 1.8,1.8 1.8874999,11.924999 Z M 1.8,1.8 L 14.425,19.4875 2.3999999,1.0375 Z M 14.425,19.4875 L 1.8499999,27.05 2.3999999,37.9625 Z M 5.9,18.8 L 14.425,19.4875 1.8,1.8 Z M 14.425,19.4875 L 5.9,20.1 1.8499999,27.05 Z M 6.05,19.45 L 14.425,19.4875 5.9,18.8 Z M 14.425,19.4875 L 6.05,19.45 5.9,20.1 Z " style="fill:#36C861;fill-opacity:0.5;" />
	<path d="M 16.4125,2.3109374 L 16.8,2.8 16.8,2.6 Z M 16.8,2.8 L 26.925,19.400002 26.7,18.7 Z M 26.925,19.400002 L 16.8,36 26.7,20.1 Z M 16.8,36 L 15.95,36.2875 16.4125,36.289062 Z M 15.95,36.2875 L 15.4,35.6 15.5625,36.042183 Z M 15.4,35.6 L 15.487499,26.25 15.4,27 Z M 15.487499,26.25 L 19.1,19.9 15.8,25.5 Z M 19.1,18.7 L 15.487499,12.424999 15.8,13.1 Z M 15.487499,12.424999 L 15.4,3 15.4,11.6 Z M 15.4,3 L 15.95,2.3125 15.5625,2.5578127 Z M 15.95,2.3125 L 16.8,2.8 16.4125,2.3109374 Z M 26.925,19.400002 L 15.95,36.2875 16.8,36 Z M 15.95,36.2875 L 15.487499,26.25 15.4,35.6 Z M 19.1,18.7 L 15.4,3 15.487499,12.424999 Z M 15.4,3 L 16.8,2.8 15.95,2.3125 Z M 26.925,19.400002 L 15.487499,26.25 15.95,36.2875 Z M 19.25,19.3 L 15.4,3 19.1,18.7 Z M 15.4,3 L 26.925,19.400002 16.8,2.8 Z M 26.925,19.400002 L 19.1,19.9 15.487499,26.25 Z M 19.25,19.3 L 26.925,19.400002 15.4,3 Z M 26.925,19.400002 L 19.25,19.3 19.1,19.9 Z " style="fill:#36C861;fill-opacity:0.8;" />
	<path d="M 29.2,4.7 L 38.1,18.8 29.2,4.6 Z M 38.1,18.8 L 38.1,20.1 38.25,19.45 Z M 38.1,20.1 L 28.4875,34.7 29.2,34.4 Z M 28.4875,34.7 L 28,26.5 28,34.1 Z M 28,26.5 L 28.4,25.1 28.0875,25.7625 Z M 31.3,19 L 28.0875,13.337501 28.4,14 Z M 28.0875,13.337501 L 28,5 28,12.6 Z M 28,5 L 29.2,4.7 28.4875,4.3625 Z M 29.2,4.7 L 38.1,20.1 38.1,18.8 Z M 38.1,20.1 L 28,26.5 28.4875,34.7 Z M 28,26.5 L 31.3,20.1 28.4,25.1 Z M 31.3,19 L 28,5 28.0875,13.337501 Z M 28,5 L 38.1,20.1 29.2,4.7 Z M 38.1,20.1 L 31.3,20.1 28,26.5 Z M 31.45,19.5875 L 28,5 31.3,19 Z M 38.1,20.1 L 31.45,19.5875 31.3,20.1 Z M 31.45,19.5875 L 38.1,20.1 28,5 Z " style="fill:#36C861;fill-opacity:1;" />
</svg>
