<svg x="0" y="0" viewBox="0 0 50 63.414" xmlns="http://www.w3.org/2000/svg">
	<path d="M 44.984776,25.924717 L 47.268948,27.428572 46.191315,26.587172 Z M 47.268948,27.428572 L 48.954803,29.569038 48.197,28.429125 Z M 48.954803,29.569038 L 49.876976,32.187767 49.521687,30.828516 Z M 49.876976,32.187767 L 50,54.858 50,33.627 Z M 50,54.858 L 49.82538,56.57678 49.955612,55.729614 Z M 49.82538,56.57678 L 49.324905,58.180218 49.613678,57.395107 Z M 49.324905,58.180218 L 48.533665,59.633236 48.96344,58.927723 Z M 48.533665,59.633236 L 47.486748,60.90075 48.03997,60.292374 Z M 47.486748,60.90075 L 46.21924,61.947666 46.878372,61.45397 Z M 46.21924,61.947666 L 44.76622,62.738907 45.513725,62.37744 Z M 44.76622,62.738907 L 43.162777,63.23938 43.98111,63.02768 Z M 43.162777,63.23938 L 41.444,63.414 42.315613,63.369614 Z M 41.444,63.414 L 7.6723566,63.36988 8.546,63.414 Z M 7.6723566,63.36988 L 6.0049872,63.029816 6.8239193,63.240387 Z M 6.0049872,63.029816 L 4.4728346,62.382607 5.219859,62.742455 Z M 4.4728346,62.382607 L 3.110293,61.462646 3.7682126,61.954575 Z M 3.110293,61.462646 L 1.9517574,60.304302 2.5033748,60.911125 Z M 1.9517574,60.304302 L 1.0316223,58.941933 1.4597402,59.646473 Z M 1.0316223,58.941933 L 0.38428196,57.40992 0.6717031,58.194984 Z M 0.38428196,57.40992 L 0.0441311,55.742634 0.17365819,56.591038 Z M 0.0441311,55.742634 L 0,33.627 0,54.869 Z M 0,33.627 L 20.31688,39.5271 20.262,38.748 Z M 22.575527,43.231094 L 23.202,52.027 23.202,43.623 Z M 28.444,52.027 L 29.069725,43.227844 28.444,43.62 Z M 20.29069,38.17965 L 0,33.627 20.262,38.748 Z M 0,33.627 L 0.47865623,30.827936 0.123113275,32.187435 Z M 0.47865623,30.827936 L 1.80425,28.42825 1.0459336,29.568281 Z M 1.80425,28.42825 L 3.8112187,26.586187 2.7329102,27.427624 Z M 3.8112187,26.586187 L 6.334,25.46 5.018481,25.92372 Z M 6.396,25.379 L 15.564,18.605 6.396,18.683 Z M 15.618328,17.589218 L 6.396,18.683 15.564,18.605 Z M 6.396,18.683 L 7.6280937,12.031172 6.71309,15.257763 Z M 7.6280937,12.031172 L 11.03425,6.420625 9.086613,9.0649 Z M 11.03425,6.420625 L 16.179283,2.3447657 13.416606,4.160022 Z M 16.179283,2.3447657 L 22.628,0.297 19.26788,1.0365332 Z M 22.628,0.297 L 27.376,0.297 25.002,0 Z M 27.376,0.297 L 33.82472,2.3447657 30.736122,1.0365332 Z M 33.82472,2.3447657 L 38.96975,6.420625 36.587395,4.160022 Z M 38.96975,6.420625 L 42.375908,12.031172 40.91739,9.0649 Z M 42.375908,12.031172 L 43.608,18.683 43.290913,15.257763 Z M 43.67,25.461 L 47.268948,27.428572 44.984776,25.924717 Z M 47.268948,27.428572 L 49.876976,32.187767 48.954803,29.569038 Z M 49.876976,32.187767 L 49.82538,56.57678 50,54.858 Z M 49.82538,56.57678 L 48.533665,59.633236 49.324905,58.180218 Z M 48.533665,59.633236 L 46.21924,61.947666 47.486748,60.90075 Z M 46.21924,61.947666 L 43.162777,63.23938 44.76622,62.738907 Z M 43.162777,63.23938 L 7.6723566,63.36988 41.444,63.414 Z M 7.6723566,63.36988 L 4.4728346,62.382607 6.0049872,63.029816 Z M 4.4728346,62.382607 L 1.9517574,60.304302 3.110293,61.462646 Z M 1.9517574,60.304302 L 0.38428196,57.40992 1.0316223,58.941933 Z M 0.38428196,57.40992 L 0,33.627 0.0441311,55.742634 Z M 0,33.627 L 20.476406,40.271347 20.31688,39.5271 Z M 22.007719,42.76341 L 23.202,52.027 22.575527,43.231094 Z M 28.444,52.027 L 29.636812,42.76017 29.069725,43.227844 Z M 20.3749,37.627712 L 0,33.627 20.29069,38.17965 Z M 0,33.627 L 1.80425,28.42825 0.47865623,30.827936 Z M 1.80425,28.42825 L 6.334,25.46 3.8112187,26.586187 Z M 6.334,25.46 L 15.564,18.605 6.396,25.379 Z M 15.777562,16.60436 L 6.396,18.683 15.618328,17.589218 Z M 6.396,18.683 L 11.03425,6.420625 7.6280937,12.031172 Z M 11.03425,6.420625 L 22.628,0.297 16.179283,2.3447657 Z M 22.628,0.297 L 33.82472,2.3447657 27.376,0.297 Z M 33.82472,2.3447657 L 42.375908,12.031172 38.96975,6.420625 Z M 42.375908,12.031172 L 43.608,25.38 43.608,18.683 Z M 43.67,25.461 L 49.876976,32.187767 47.268948,27.428572 Z M 49.876976,32.187767 L 48.533665,59.633236 49.82538,56.57678 Z M 48.533665,59.633236 L 43.162777,63.23938 46.21924,61.947666 Z M 43.162777,63.23938 L 4.4728346,62.382607 7.6723566,63.36988 Z M 4.4728346,62.382607 L 0.38428196,57.40992 1.9517574,60.304302 Z M 0.38428196,57.40992 L 20.476406,40.271347 0,33.627 Z M 21.50624,42.226772 L 23.202,52.027 22.007719,42.76341 Z M 28.444,52.027 L 30.137617,42.22375 29.636812,42.76017 Z M 20.511843,37.094982 L 0,33.627 20.3749,37.627712 Z M 0,33.627 L 6.334,25.46 1.80425,28.42825 Z M 6.334,25.46 L 15.564,25.069 15.564,18.605 Z M 16.036077,15.656048 L 6.396,18.683 15.777562,16.60436 Z M 6.396,18.683 L 22.628,0.297 11.03425,6.420625 Z M 22.628,0.297 L 42.375908,12.031172 33.82472,2.3447657 Z M 43.67,25.461 L 48.533665,59.633236 49.876976,32.187767 Z M 48.533665,59.633236 L 4.4728346,62.382607 43.162777,63.23938 Z M 4.4728346,62.382607 L 20.476406,40.271347 0.38428196,57.40992 Z M 21.07875,41.628002 L 23.202,52.027 21.50624,42.226772 Z M 28.35425,52.70475 L 30.137617,42.22375 28.444,52.027 Z M 20.698719,36.58425 L 0,33.627 20.511843,37.094982 Z M 0,33.627 L 15.564,25.069 6.334,25.46 Z M 16.388248,14.74989 L 6.396,18.683 16.036077,15.656048 Z M 22.628,0.297 L 43.608,25.38 42.375908,12.031172 Z M 43.608,25.38 L 48.533665,59.633236 43.67,25.461 Z M 4.4728346,62.382607 L 20.73292,40.973923 20.476406,40.271347 Z M 20.73292,40.973923 L 23.202,52.027 21.07875,41.628002 Z M 28.35425,52.70475 L 30.564499,41.625374 30.137617,42.22375 Z M 20.932741,36.09832 L 0,33.627 20.698719,36.58425 Z M 0,33.627 L 15.652,25.157 15.564,25.069 Z M 16.828453,13.891504 L 6.396,18.683 16.388248,14.74989 Z M 4.4728346,62.382607 L 23.202,52.027 20.73292,40.973923 Z M 28.35425,52.70475 L 30.909819,40.971825 30.564499,41.625374 Z M 21.211113,35.639977 L 0,33.627 20.932741,36.09832 Z M 0,33.627 L 34.352,25.157 15.652,25.157 Z M 17.351063,13.086505 L 6.396,18.683 16.828453,13.891504 Z M 4.4728346,62.382607 L 23.291405,52.70475 23.202,52.027 Z M 28.35425,52.70475 L 31.165936,40.26989 30.909819,40.971825 Z M 21.531048,35.21202 L 0,33.627 21.211113,35.639977 Z M 17.950455,12.3405075 L 6.396,18.683 17.351063,13.086505 Z M 4.4728346,62.382607 L 23.54375,53.315002 23.291405,52.70475 Z M 21.88975,34.81725 L 0,33.627 21.531048,35.21202 Z M 18.621,11.659125 L 6.396,18.683 17.950455,12.3405075 Z M 4.4728346,62.382607 L 23.935219,53.836 23.54375,53.315002 Z M 22.284428,34.458454 L 0,33.627 21.88975,34.81725 Z M 19.357079,11.047974 L 6.396,18.683 18.621,11.659125 Z M 4.4728346,62.382607 L 24.442,54.246 23.935219,53.836 Z M 22.712292,34.138428 L 0,33.627 22.284428,34.458454 Z M 20.153063,10.512667 L 6.396,18.683 19.357079,11.047974 Z M 48.533665,59.633236 L 24.442,54.246 4.4728346,62.382607 Z M 23.17055,33.859966 L 0,33.627 22.712292,34.138428 Z M 20.153063,10.512667 L 22.628,0.297 6.396,18.683 Z M 48.533665,59.633236 L 27.2,54.246 24.442,54.246 Z M 23.656406,33.62587 L 0,33.627 23.17055,33.859966 Z M 21.00333,10.05882 L 22.628,0.297 20.153063,10.512667 Z M 48.533665,59.633236 L 27.708252,53.836 27.2,54.246 Z M 24.167072,33.438927 L 0,33.627 23.656406,33.62587 Z M 21.90225,9.692047 L 22.628,0.297 21.00333,10.05882 Z M 48.533665,59.633236 L 28.101,53.315002 27.708252,53.836 Z M 24.699753,33.30194 L 0,33.627 24.167072,33.438927 Z M 22.8442,9.417965 L 22.628,0.297 21.90225,9.692047 Z M 43.608,25.38 L 28.101,53.315002 48.533665,59.633236 Z M 25.25166,33.2177 L 0,33.627 24.699753,33.30194 Z M 23.82356,9.242186 L 22.628,0.297 22.8442,9.417965 Z M 43.608,25.38 L 28.35425,52.70475 28.101,53.315002 Z M 25.82,33.189 L 0,33.627 25.25166,33.2177 Z M 24.834703,9.170326 L 22.628,0.297 23.82356,9.242186 Z M 43.608,25.38 L 31.165936,40.26989 28.35425,52.70475 Z M 25.82,33.189 L 34.352,25.157 0,33.627 Z M 25.872,9.208 L 22.628,0.297 24.834703,9.170326 Z M 43.608,25.38 L 31.32521,39.526356 31.165936,40.26989 Z M 26.388363,33.2177 L 34.352,25.157 25.82,33.189 Z M 26.783628,9.337858 L 22.628,0.297 25.872,9.208 Z M 43.608,25.38 L 31.38,38.748 31.32521,39.526356 Z M 26.940332,33.30194 L 34.352,25.157 26.388363,33.2177 Z M 27.660774,9.557091 L 22.628,0.297 26.783628,9.337858 Z M 43.608,25.38 L 31.351286,38.17965 31.38,38.748 Z M 27.473112,33.438927 L 34.352,25.157 26.940332,33.30194 Z M 28.50008,9.860504 L 22.628,0.297 27.660774,9.557091 Z M 43.608,25.38 L 31.26701,37.627712 31.351286,38.17965 Z M 27.983906,33.62587 L 34.352,25.157 27.473112,33.438927 Z M 29.298187,10.242907 L 22.628,0.297 28.50008,9.860504 Z M 43.608,25.38 L 31.12997,37.094982 31.26701,37.627712 Z M 28.469913,33.859966 L 34.352,25.157 27.983906,33.62587 Z M 30.05174,10.6991005 L 22.628,0.297 29.298187,10.242907 Z M 43.608,25.38 L 30.942966,36.58425 31.12997,37.094982 Z M 28.928339,34.138428 L 34.352,25.157 28.469913,33.859966 Z M 30.757381,11.223894 L 22.628,0.297 30.05174,10.6991005 Z M 43.608,25.38 L 30.708796,36.09832 30.942966,36.58425 Z M 29.356384,34.458454 L 34.352,25.157 28.928339,34.138428 Z M 32.011497,12.4585 L 22.628,0.297 30.757381,11.223894 Z M 43.608,25.38 L 30.430254,35.639977 30.708796,36.09832 Z M 29.75125,34.81725 L 34.352,25.157 29.356384,34.458454 Z M 32.011497,12.4585 L 43.608,25.38 22.628,0.297 Z M 43.608,25.38 L 30.110138,35.21202 30.430254,35.639977 Z M 30.110138,35.21202 L 34.352,25.157 29.75125,34.81725 Z M 33.033676,13.905167 L 43.608,25.38 32.011497,12.4585 Z M 43.608,25.38 L 34.352,25.157 30.110138,35.21202 Z M 33.79706,15.522343 L 43.608,25.38 33.033676,13.905167 Z M 43.608,25.38 L 34.44,25.069 34.352,25.157 Z M 34.274788,17.26847 L 43.608,25.38 33.79706,15.522343 Z M 43.608,25.38 L 34.44,19.102 34.44,25.069 Z M 34.44,19.102 L 43.608,25.38 34.274788,17.26847 Z " style="fill:#FFFFFF;fill-opacity:1;" />
</svg>
